<?xml version="1.0" encoding="UTF-8"?>
<svg xmlns="http://www.w3.org/2000/svg"
     width="1323"
     height="287"
     viewBox="0 0 1323 287"
     role="img"
     aria-labelledby="revikoo-title revikoo-desc">
  <title id="revikoo-title">Revikoo</title>
  <desc id="revikoo-desc">Logotipo vectorial de Revikoo trazado desde el recurso original aprobado.</desc>
  <defs>
    <linearGradient id="revikoo-violet" x1="0" y1="0" x2="0" y2="1">
      <stop offset="0%" stop-color="#983FFB"/>
      <stop offset="25%" stop-color="#8B38FA"/>
      <stop offset="50%" stop-color="#7A32F8"/>
      <stop offset="75%" stop-color="#6729F5"/>
      <stop offset="100%" stop-color="#5E23F4"/>
    </linearGradient>
  </defs>
  <path d="M 20.00,20.00 L 82.00,77.00 L 198.00,78.00 L 202.00,82.00 L 201.00,88.00 L 114.00,183.00 L 114.00,187.00 L 196.00,265.00 L 286.00,265.00 L 197.00,184.00 L 284.00,83.00 L 222.00,20.00 Z" fill="url(#revikoo-violet)" fill-rule="evenodd"/>
  <path d="M 22.00,77.00 L 21.00,217.00 L 85.00,265.00 L 85.00,105.00 Z" fill="url(#revikoo-violet)" fill-rule="evenodd"/>
  <path d="M 830.00,121.00 L 828.00,123.00 L 828.00,243.00 L 829.00,244.00 L 857.00,244.00 L 858.00,243.00 L 858.00,123.00 L 856.00,121.00 Z M 671.00,121.00 L 670.00,122.00 L 670.00,125.00 L 671.00,126.00 L 671.00,127.00 L 672.00,128.00 L 672.00,129.00 L 674.00,132.00 L 674.00,134.00 L 675.00,135.00 L 675.00,136.00 L 676.00,137.00 L 676.00,138.00 L 678.00,141.00 L 678.00,143.00 L 679.00,144.00 L 679.00,145.00 L 681.00,148.00 L 681.00,150.00 L 682.00,151.00 L 682.00,152.00 L 683.00,153.00 L 683.00,154.00 L 685.00,157.00 L 685.00,159.00 L 686.00,160.00 L 686.00,161.00 L 687.00,162.00 L 687.00,163.00 L 688.00,164.00 L 688.00,165.00 L 689.00,166.00 L 689.00,167.00 L 690.00,168.00 L 690.00,169.00 L 692.00,172.00 L 692.00,174.00 L 693.00,175.00 L 693.00,176.00 L 695.00,179.00 L 695.00,181.00 L 696.00,182.00 L 696.00,183.00 L 698.00,186.00 L 698.00,188.00 L 699.00,189.00 L 699.00,190.00 L 700.00,191.00 L 700.00,192.00 L 702.00,195.00 L 702.00,197.00 L 703.00,198.00 L 703.00,199.00 L 704.00,200.00 L 704.00,201.00 L 705.00,202.00 L 705.00,203.00 L 706.00,204.00 L 706.00,205.00 L 708.00,208.00 L 708.00,210.00 L 709.00,211.00 L 709.00,212.00 L 711.00,215.00 L 711.00,217.00 L 712.00,218.00 L 712.00,219.00 L 713.00,220.00 L 713.00,221.00 L 715.00,224.00 L 715.00,226.00 L 716.00,227.00 L 716.00,228.00 L 718.00,231.00 L 718.00,233.00 L 719.00,234.00 L 719.00,235.00 L 720.00,236.00 L 720.00,237.00 L 721.00,238.00 L 721.00,239.00 L 722.00,240.00 L 722.00,241.00 L 723.00,242.00 L 723.00,243.00 L 724.00,244.00 L 756.00,244.00 L 759.00,241.00 L 759.00,239.00 L 760.00,238.00 L 760.00,237.00 L 761.00,236.00 L 761.00,235.00 L 762.00,234.00 L 762.00,233.00 L 763.00,232.00 L 763.00,231.00 L 764.00,230.00 L 764.00,229.00 L 766.00,226.00 L 766.00,224.00 L 767.00,223.00 L 767.00,222.00 L 768.00,221.00 L 768.00,220.00 L 769.00,219.00 L 769.00,218.00 L 771.00,215.00 L 771.00,213.00 L 772.00,212.00 L 772.00,211.00 L 773.00,210.00 L 773.00,209.00 L 774.00,208.00 L 774.00,207.00 L 775.00,206.00 L 775.00,205.00 L 777.00,202.00 L 777.00,200.00 L 778.00,199.00 L 778.00,198.00 L 779.00,197.00 L 779.00,196.00 L 780.00,195.00 L 780.00,194.00 L 781.00,193.00 L 781.00,192.00 L 783.00,189.00 L 783.00,187.00 L 784.00,186.00 L 784.00,185.00 L 785.00,184.00 L 785.00,183.00 L 786.00,182.00 L 786.00,181.00 L 787.00,180.00 L 787.00,179.00 L 788.00,178.00 L 788.00,177.00 L 789.00,176.00 L 789.00,175.00 L 791.00,172.00 L 791.00,170.00 L 792.00,169.00 L 792.00,168.00 L 793.00,167.00 L 793.00,166.00 L 795.00,163.00 L 795.00,161.00 L 796.00,160.00 L 796.00,159.00 L 797.00,158.00 L 797.00,157.00 L 798.00,156.00 L 798.00,155.00 L 800.00,152.00 L 800.00,150.00 L 801.00,149.00 L 801.00,148.00 L 802.00,147.00 L 802.00,146.00 L 803.00,145.00 L 803.00,144.00 L 804.00,143.00 L 804.00,142.00 L 805.00,141.00 L 805.00,140.00 L 806.00,139.00 L 806.00,138.00 L 807.00,137.00 L 807.00,136.00 L 808.00,135.00 L 808.00,134.00 L 809.00,133.00 L 809.00,132.00 L 811.00,129.00 L 811.00,127.00 L 812.00,126.00 L 812.00,125.00 L 813.00,124.00 L 813.00,123.00 L 811.00,121.00 L 783.00,121.00 L 781.00,123.00 L 781.00,124.00 L 780.00,125.00 L 780.00,126.00 L 778.00,129.00 L 778.00,131.00 L 777.00,132.00 L 777.00,133.00 L 776.00,134.00 L 776.00,135.00 L 774.00,138.00 L 774.00,140.00 L 773.00,141.00 L 773.00,142.00 L 772.00,143.00 L 772.00,144.00 L 770.00,147.00 L 770.00,149.00 L 769.00,150.00 L 769.00,151.00 L 768.00,152.00 L 768.00,153.00 L 767.00,154.00 L 767.00,155.00 L 765.00,158.00 L 765.00,160.00 L 764.00,161.00 L 764.00,162.00 L 763.00,163.00 L 763.00,164.00 L 761.00,167.00 L 761.00,169.00 L 760.00,170.00 L 760.00,171.00 L 759.00,172.00 L 759.00,173.00 L 758.00,174.00 L 758.00,175.00 L 756.00,178.00 L 756.00,180.00 L 755.00,181.00 L 755.00,182.00 L 753.00,185.00 L 753.00,187.00 L 752.00,188.00 L 752.00,189.00 L 751.00,190.00 L 751.00,191.00 L 749.00,194.00 L 749.00,196.00 L 748.00,197.00 L 748.00,198.00 L 746.00,201.00 L 746.00,203.00 L 745.00,204.00 L 745.00,205.00 L 743.00,208.00 L 743.00,210.00 L 742.00,211.00 L 742.00,212.00 L 741.00,213.00 L 740.00,213.00 L 739.00,212.00 L 739.00,211.00 L 737.00,208.00 L 737.00,206.00 L 736.00,205.00 L 736.00,204.00 L 734.00,201.00 L 734.00,199.00 L 733.00,198.00 L 733.00,197.00 L 731.00,194.00 L 731.00,192.00 L 729.00,189.00 L 729.00,187.00 L 728.00,186.00 L 728.00,185.00 L 727.00,184.00 L 727.00,183.00 L 725.00,180.00 L 725.00,178.00 L 724.00,177.00 L 724.00,176.00 L 722.00,173.00 L 722.00,171.00 L 720.00,168.00 L 720.00,166.00 L 719.00,165.00 L 719.00,164.00 L 717.00,161.00 L 717.00,159.00 L 716.00,158.00 L 716.00,157.00 L 714.00,154.00 L 714.00,152.00 L 713.00,151.00 L 713.00,150.00 L 711.00,147.00 L 711.00,145.00 L 710.00,144.00 L 710.00,143.00 L 708.00,140.00 L 708.00,138.00 L 706.00,135.00 L 706.00,133.00 L 705.00,132.00 L 705.00,131.00 L 703.00,128.00 L 703.00,126.00 L 702.00,125.00 L 702.00,124.00 L 699.00,121.00 Z M 1185.00,128.00 L 1177.00,136.00 L 1177.00,137.00 L 1176.00,138.00 L 1176.00,139.00 L 1174.00,141.00 L 1174.00,143.00 L 1173.00,144.00 L 1173.00,146.00 L 1172.00,147.00 L 1172.00,149.00 L 1171.00,150.00 L 1171.00,154.00 L 1170.00,155.00 L 1170.00,163.00 L 1169.00,164.00 L 1169.00,201.00 L 1170.00,202.00 L 1170.00,210.00 L 1171.00,211.00 L 1171.00,215.00 L 1172.00,216.00 L 1172.00,219.00 L 1173.00,220.00 L 1173.00,222.00 L 1174.00,223.00 L 1174.00,224.00 L 1175.00,225.00 L 1175.00,226.00 L 1176.00,227.00 L 1176.00,228.00 L 1178.00,230.00 L 1178.00,231.00 L 1183.00,236.00 L 1184.00,236.00 L 1186.00,238.00 L 1187.00,238.00 L 1189.00,240.00 L 1191.00,240.00 L 1192.00,241.00 L 1193.00,241.00 L 1196.00,243.00 L 1199.00,243.00 L 1200.00,244.00 L 1205.00,244.00 L 1206.00,245.00 L 1263.00,245.00 L 1264.00,244.00 L 1270.00,244.00 L 1271.00,243.00 L 1274.00,243.00 L 1275.00,242.00 L 1277.00,242.00 L 1278.00,241.00 L 1279.00,241.00 L 1280.00,240.00 L 1281.00,240.00 L 1282.00,239.00 L 1283.00,239.00 L 1284.00,238.00 L 1285.00,238.00 L 1287.00,236.00 L 1288.00,236.00 L 1292.00,232.00 L 1292.00,231.00 L 1295.00,228.00 L 1295.00,227.00 L 1296.00,226.00 L 1296.00,225.00 L 1298.00,222.00 L 1298.00,220.00 L 1300.00,217.00 L 1300.00,214.00 L 1301.00,213.00 L 1301.00,208.00 L 1302.00,207.00 L 1302.00,159.00 L 1301.00,158.00 L 1301.00,153.00 L 1300.00,152.00 L 1300.00,149.00 L 1299.00,148.00 L 1299.00,146.00 L 1298.00,145.00 L 1298.00,143.00 L 1297.00,142.00 L 1297.00,141.00 L 1296.00,140.00 L 1296.00,139.00 L 1294.00,137.00 L 1294.00,136.00 L 1287.00,129.00 L 1286.00,129.00 L 1284.00,127.00 L 1283.00,127.00 L 1282.00,126.00 L 1281.00,126.00 L 1278.00,124.00 L 1276.00,124.00 L 1275.00,123.00 L 1273.00,123.00 L 1272.00,122.00 L 1269.00,122.00 L 1268.00,121.00 L 1262.00,121.00 L 1261.00,120.00 L 1210.00,120.00 L 1209.00,121.00 L 1203.00,121.00 L 1202.00,122.00 L 1198.00,122.00 L 1197.00,123.00 L 1195.00,123.00 L 1192.00,125.00 L 1190.00,125.00 L 1189.00,126.00 L 1188.00,126.00 L 1186.00,128.00 Z M 1207.00,150.00 L 1208.00,150.00 L 1209.00,149.00 L 1211.00,149.00 L 1212.00,148.00 L 1216.00,148.00 L 1217.00,147.00 L 1254.00,147.00 L 1255.00,148.00 L 1259.00,148.00 L 1260.00,149.00 L 1262.00,149.00 L 1263.00,150.00 L 1264.00,150.00 L 1270.00,156.00 L 1270.00,158.00 L 1271.00,159.00 L 1271.00,161.00 L 1272.00,162.00 L 1272.00,168.00 L 1273.00,169.00 L 1273.00,198.00 L 1272.00,199.00 L 1272.00,204.00 L 1271.00,205.00 L 1271.00,207.00 L 1270.00,208.00 L 1270.00,209.00 L 1269.00,210.00 L 1269.00,211.00 L 1265.00,215.00 L 1264.00,215.00 L 1261.00,217.00 L 1258.00,217.00 L 1257.00,218.00 L 1214.00,218.00 L 1213.00,217.00 L 1210.00,217.00 L 1209.00,216.00 L 1208.00,216.00 L 1207.00,215.00 L 1206.00,215.00 L 1202.00,211.00 L 1202.00,210.00 L 1200.00,207.00 L 1200.00,205.00 L 1199.00,204.00 L 1199.00,198.00 L 1198.00,197.00 L 1198.00,170.00 L 1199.00,169.00 L 1199.00,162.00 L 1200.00,161.00 L 1200.00,158.00 L 1201.00,157.00 L 1201.00,156.00 Z M 1034.00,128.00 L 1026.00,136.00 L 1026.00,137.00 L 1024.00,139.00 L 1024.00,140.00 L 1022.00,143.00 L 1022.00,145.00 L 1021.00,146.00 L 1021.00,148.00 L 1020.00,149.00 L 1020.00,151.00 L 1019.00,152.00 L 1019.00,157.00 L 1018.00,158.00 L 1018.00,207.00 L 1019.00,208.00 L 1019.00,213.00 L 1020.00,214.00 L 1020.00,217.00 L 1021.00,218.00 L 1021.00,220.00 L 1022.00,221.00 L 1022.00,222.00 L 1023.00,223.00 L 1023.00,224.00 L 1024.00,225.00 L 1024.00,226.00 L 1025.00,227.00 L 1025.00,228.00 L 1027.00,230.00 L 1027.00,231.00 L 1032.00,236.00 L 1033.00,236.00 L 1035.00,238.00 L 1036.00,238.00 L 1037.00,239.00 L 1038.00,239.00 L 1039.00,240.00 L 1040.00,240.00 L 1043.00,242.00 L 1045.00,242.00 L 1046.00,243.00 L 1049.00,243.00 L 1050.00,244.00 L 1055.00,244.00 L 1056.00,245.00 L 1112.00,245.00 L 1113.00,244.00 L 1118.00,244.00 L 1119.00,243.00 L 1122.00,243.00 L 1123.00,242.00 L 1125.00,242.00 L 1126.00,241.00 L 1128.00,241.00 L 1129.00,240.00 L 1130.00,240.00 L 1132.00,238.00 L 1133.00,238.00 L 1134.00,237.00 L 1135.00,237.00 L 1142.00,230.00 L 1142.00,229.00 L 1144.00,227.00 L 1144.00,226.00 L 1145.00,225.00 L 1145.00,223.00 L 1146.00,222.00 L 1146.00,221.00 L 1147.00,220.00 L 1147.00,218.00 L 1148.00,217.00 L 1148.00,214.00 L 1149.00,213.00 L 1149.00,207.00 L 1150.00,206.00 L 1150.00,160.00 L 1149.00,159.00 L 1149.00,153.00 L 1148.00,152.00 L 1148.00,149.00 L 1147.00,148.00 L 1147.00,145.00 L 1146.00,144.00 L 1146.00,143.00 L 1145.00,142.00 L 1145.00,141.00 L 1144.00,140.00 L 1144.00,139.00 L 1142.00,137.00 L 1142.00,136.00 L 1135.00,129.00 L 1134.00,129.00 L 1132.00,127.00 L 1131.00,127.00 L 1130.00,126.00 L 1129.00,126.00 L 1128.00,125.00 L 1127.00,125.00 L 1124.00,123.00 L 1121.00,123.00 L 1120.00,122.00 L 1117.00,122.00 L 1116.00,121.00 L 1110.00,121.00 L 1109.00,120.00 L 1059.00,120.00 L 1058.00,121.00 L 1052.00,121.00 L 1051.00,122.00 L 1047.00,122.00 L 1046.00,123.00 L 1044.00,123.00 L 1043.00,124.00 L 1042.00,124.00 L 1041.00,125.00 L 1040.00,125.00 L 1039.00,126.00 L 1038.00,126.00 L 1037.00,127.00 L 1036.00,127.00 L 1035.00,128.00 Z M 1054.00,151.00 L 1055.00,151.00 L 1058.00,149.00 L 1060.00,149.00 L 1061.00,148.00 L 1065.00,148.00 L 1066.00,147.00 L 1101.00,147.00 L 1102.00,148.00 L 1107.00,148.00 L 1108.00,149.00 L 1110.00,149.00 L 1116.00,153.00 L 1116.00,154.00 L 1118.00,156.00 L 1118.00,157.00 L 1119.00,158.00 L 1119.00,160.00 L 1120.00,161.00 L 1120.00,167.00 L 1121.00,168.00 L 1121.00,198.00 L 1120.00,199.00 L 1120.00,205.00 L 1119.00,206.00 L 1119.00,208.00 L 1117.00,210.00 L 1117.00,211.00 L 1113.00,215.00 L 1112.00,215.00 L 1109.00,217.00 L 1106.00,217.00 L 1105.00,218.00 L 1063.00,218.00 L 1062.00,217.00 L 1059.00,217.00 L 1058.00,216.00 L 1057.00,216.00 L 1056.00,215.00 L 1055.00,215.00 L 1050.00,210.00 L 1050.00,209.00 L 1048.00,206.00 L 1048.00,202.00 L 1047.00,201.00 L 1047.00,165.00 L 1048.00,164.00 L 1048.00,160.00 L 1049.00,159.00 L 1049.00,157.00 L 1051.00,155.00 L 1051.00,154.00 Z M 550.00,129.00 L 544.00,135.00 L 544.00,136.00 L 542.00,138.00 L 542.00,139.00 L 541.00,140.00 L 541.00,141.00 L 539.00,144.00 L 539.00,146.00 L 538.00,147.00 L 538.00,149.00 L 537.00,150.00 L 537.00,154.00 L 536.00,155.00 L 536.00,212.00 L 537.00,213.00 L 537.00,217.00 L 538.00,218.00 L 538.00,220.00 L 539.00,221.00 L 539.00,222.00 L 540.00,223.00 L 540.00,224.00 L 541.00,225.00 L 541.00,226.00 L 542.00,227.00 L 542.00,228.00 L 543.00,229.00 L 543.00,230.00 L 549.00,236.00 L 550.00,236.00 L 552.00,238.00 L 553.00,238.00 L 555.00,240.00 L 556.00,240.00 L 557.00,241.00 L 559.00,241.00 L 560.00,242.00 L 562.00,242.00 L 563.00,243.00 L 565.00,243.00 L 566.00,244.00 L 571.00,244.00 L 572.00,245.00 L 632.00,245.00 L 633.00,244.00 L 638.00,244.00 L 639.00,243.00 L 641.00,243.00 L 642.00,242.00 L 644.00,242.00 L 645.00,241.00 L 647.00,241.00 L 648.00,240.00 L 649.00,240.00 L 651.00,238.00 L 652.00,238.00 L 659.00,231.00 L 659.00,230.00 L 660.00,229.00 L 660.00,228.00 L 662.00,225.00 L 662.00,223.00 L 663.00,222.00 L 663.00,220.00 L 664.00,219.00 L 664.00,206.00 L 663.00,206.00 L 662.00,205.00 L 637.00,205.00 L 636.00,206.00 L 636.00,209.00 L 635.00,210.00 L 635.00,212.00 L 631.00,216.00 L 630.00,216.00 L 627.00,218.00 L 623.00,218.00 L 622.00,219.00 L 582.00,219.00 L 581.00,218.00 L 576.00,218.00 L 575.00,217.00 L 574.00,217.00 L 573.00,216.00 L 572.00,216.00 L 568.00,212.00 L 568.00,211.00 L 567.00,210.00 L 567.00,208.00 L 566.00,207.00 L 566.00,193.00 L 567.00,192.00 L 664.00,192.00 L 666.00,190.00 L 666.00,161.00 L 665.00,160.00 L 665.00,154.00 L 664.00,153.00 L 664.00,148.00 L 663.00,147.00 L 663.00,144.00 L 662.00,143.00 L 662.00,142.00 L 661.00,141.00 L 661.00,140.00 L 660.00,139.00 L 660.00,138.00 L 658.00,136.00 L 658.00,135.00 L 652.00,129.00 L 651.00,129.00 L 649.00,127.00 L 648.00,127.00 L 647.00,126.00 L 646.00,126.00 L 645.00,125.00 L 644.00,125.00 L 641.00,123.00 L 638.00,123.00 L 637.00,122.00 L 634.00,122.00 L 633.00,121.00 L 627.00,121.00 L 626.00,120.00 L 576.00,120.00 L 575.00,121.00 L 569.00,121.00 L 568.00,122.00 L 565.00,122.00 L 564.00,123.00 L 561.00,123.00 L 560.00,124.00 L 559.00,124.00 L 558.00,125.00 L 557.00,125.00 L 556.00,126.00 L 555.00,126.00 L 554.00,127.00 L 553.00,127.00 L 551.00,129.00 Z M 566.00,158.00 L 567.00,157.00 L 567.00,156.00 L 568.00,155.00 L 568.00,154.00 L 572.00,150.00 L 573.00,150.00 L 576.00,148.00 L 580.00,148.00 L 581.00,147.00 L 622.00,147.00 L 623.00,148.00 L 626.00,148.00 L 627.00,149.00 L 629.00,149.00 L 631.00,151.00 L 632.00,151.00 L 634.00,153.00 L 634.00,154.00 L 636.00,157.00 L 636.00,159.00 L 637.00,160.00 L 637.00,169.00 L 636.00,170.00 L 567.00,170.00 L 566.00,169.00 Z M 887.00,77.00 L 886.00,78.00 L 886.00,243.00 L 887.00,244.00 L 914.00,244.00 L 915.00,243.00 L 915.00,194.00 L 917.00,192.00 L 936.00,192.00 L 940.00,196.00 L 940.00,197.00 L 943.00,200.00 L 943.00,201.00 L 948.00,206.00 L 948.00,207.00 L 952.00,211.00 L 952.00,212.00 L 956.00,216.00 L 956.00,217.00 L 959.00,220.00 L 959.00,221.00 L 963.00,225.00 L 963.00,226.00 L 968.00,231.00 L 968.00,232.00 L 972.00,236.00 L 972.00,237.00 L 976.00,241.00 L 976.00,242.00 L 978.00,244.00 L 1011.00,244.00 L 1012.00,243.00 L 1012.00,241.00 L 1011.00,240.00 L 1011.00,239.00 L 1008.00,236.00 L 1008.00,235.00 L 1003.00,230.00 L 1003.00,229.00 L 999.00,225.00 L 999.00,224.00 L 994.00,219.00 L 994.00,218.00 L 990.00,214.00 L 990.00,213.00 L 985.00,208.00 L 985.00,207.00 L 981.00,203.00 L 981.00,202.00 L 977.00,198.00 L 977.00,197.00 L 973.00,193.00 L 973.00,192.00 L 969.00,188.00 L 969.00,187.00 L 963.00,181.00 L 963.00,180.00 L 962.00,179.00 L 962.00,178.00 L 963.00,177.00 L 963.00,176.00 L 973.00,166.00 L 973.00,165.00 L 984.00,154.00 L 984.00,153.00 L 997.00,140.00 L 997.00,139.00 L 1010.00,126.00 L 1010.00,122.00 L 1009.00,121.00 L 978.00,121.00 L 977.00,122.00 L 976.00,122.00 L 970.00,128.00 L 970.00,129.00 L 959.00,140.00 L 959.00,141.00 L 950.00,150.00 L 950.00,151.00 L 940.00,161.00 L 940.00,162.00 L 934.00,168.00 L 917.00,168.00 L 915.00,166.00 L 915.00,78.00 L 914.00,77.00 Z M 830.00,77.00 L 828.00,79.00 L 828.00,105.00 L 830.00,107.00 L 856.00,107.00 L 858.00,105.00 L 858.00,79.00 L 856.00,77.00 Z M 367.00,77.00 L 365.00,79.00 L 365.00,242.00 L 366.00,243.00 L 366.00,244.00 L 396.00,244.00 L 396.00,243.00 L 397.00,242.00 L 397.00,192.00 L 399.00,190.00 L 415.00,190.00 L 416.00,191.00 L 430.00,191.00 L 431.00,190.00 L 444.00,190.00 L 448.00,194.00 L 448.00,195.00 L 450.00,197.00 L 450.00,198.00 L 453.00,201.00 L 453.00,202.00 L 456.00,205.00 L 456.00,206.00 L 460.00,210.00 L 460.00,211.00 L 463.00,214.00 L 463.00,215.00 L 466.00,218.00 L 466.00,219.00 L 469.00,222.00 L 469.00,223.00 L 473.00,227.00 L 473.00,228.00 L 476.00,231.00 L 476.00,232.00 L 480.00,236.00 L 480.00,237.00 L 483.00,240.00 L 483.00,241.00 L 486.00,244.00 L 521.00,244.00 L 521.00,243.00 L 522.00,242.00 L 522.00,241.00 L 521.00,240.00 L 521.00,239.00 L 516.00,234.00 L 516.00,233.00 L 511.00,228.00 L 511.00,227.00 L 508.00,224.00 L 508.00,223.00 L 502.00,217.00 L 502.00,216.00 L 498.00,212.00 L 498.00,211.00 L 494.00,207.00 L 494.00,206.00 L 490.00,202.00 L 490.00,201.00 L 486.00,197.00 L 486.00,196.00 L 482.00,192.00 L 482.00,191.00 L 481.00,190.00 L 484.00,188.00 L 488.00,188.00 L 489.00,187.00 L 492.00,187.00 L 493.00,186.00 L 495.00,186.00 L 496.00,185.00 L 497.00,185.00 L 498.00,184.00 L 499.00,184.00 L 500.00,183.00 L 501.00,183.00 L 502.00,182.00 L 503.00,182.00 L 505.00,180.00 L 506.00,180.00 L 510.00,176.00 L 510.00,175.00 L 513.00,172.00 L 513.00,171.00 L 515.00,168.00 L 515.00,166.00 L 516.00,165.00 L 516.00,163.00 L 517.00,162.00 L 517.00,159.00 L 518.00,158.00 L 518.00,151.00 L 519.00,150.00 L 519.00,118.00 L 518.00,117.00 L 518.00,110.00 L 517.00,109.00 L 517.00,106.00 L 516.00,105.00 L 516.00,102.00 L 514.00,99.00 L 514.00,97.00 L 512.00,95.00 L 512.00,94.00 L 510.00,92.00 L 510.00,91.00 L 506.00,87.00 L 505.00,87.00 L 503.00,85.00 L 502.00,85.00 L 501.00,84.00 L 500.00,84.00 L 499.00,83.00 L 498.00,83.00 L 495.00,81.00 L 492.00,81.00 L 491.00,80.00 L 489.00,80.00 L 488.00,79.00 L 484.00,79.00 L 483.00,78.00 L 476.00,78.00 L 475.00,77.00 Z M 397.00,108.00 L 399.00,106.00 L 469.00,106.00 L 470.00,107.00 L 475.00,107.00 L 476.00,108.00 L 478.00,108.00 L 479.00,109.00 L 480.00,109.00 L 485.00,114.00 L 485.00,115.00 L 487.00,118.00 L 487.00,122.00 L 488.00,123.00 L 488.00,146.00 L 487.00,147.00 L 487.00,152.00 L 486.00,153.00 L 486.00,154.00 L 484.00,156.00 L 484.00,157.00 L 483.00,158.00 L 482.00,158.00 L 480.00,160.00 L 479.00,160.00 L 476.00,162.00 L 471.00,162.00 L 470.00,163.00 L 398.00,163.00 L 397.00,162.00 Z" fill="#050B1C" fill-rule="evenodd"/>
</svg>
