<?xml version="1.0" encoding="UTF-8"?>
<svg xmlns="http://www.w3.org/2000/svg"
     width="1275"
     height="289"
     viewBox="0 0 1275 289"
     role="img"
     aria-labelledby="revikoo-title revikoo-desc">
  <title id="revikoo-title">Revikoo</title>
  <desc id="revikoo-desc">Logotipo vectorial de Revikoo trazado desde el recurso original aprobado.</desc>
  <defs>
    <linearGradient id="revikoo-violet" x1="0" y1="0" x2="0" y2="1">
      <stop offset="0%" stop-color="#893CF5"/>
      <stop offset="25%" stop-color="#7D36F3"/>
      <stop offset="50%" stop-color="#6E30EF"/>
      <stop offset="75%" stop-color="#5725E7"/>
      <stop offset="100%" stop-color="#451ADD"/>
    </linearGradient>
  </defs>
  <path d="M 20.00,20.00 L 85.00,81.00 L 200.00,81.00 L 202.00,90.00 L 116.00,189.00 L 194.00,265.00 L 281.00,267.00 L 197.00,187.00 L 282.00,89.00 L 278.00,78.00 L 225.00,24.00 L 218.00,20.00 Z" fill="url(#revikoo-violet)" fill-rule="evenodd"/>
  <path d="M 25.00,81.00 L 25.00,220.00 L 85.00,268.00 L 86.00,110.00 Z" fill="url(#revikoo-violet)" fill-rule="evenodd"/>
  <path d="M 658.00,128.00 L 657.00,129.00 L 657.00,130.00 L 658.00,131.00 L 658.00,133.00 L 659.00,134.00 L 659.00,135.00 L 660.00,136.00 L 660.00,137.00 L 662.00,140.00 L 662.00,142.00 L 663.00,143.00 L 663.00,144.00 L 664.00,145.00 L 664.00,146.00 L 666.00,149.00 L 666.00,151.00 L 667.00,152.00 L 667.00,153.00 L 668.00,154.00 L 668.00,155.00 L 670.00,158.00 L 670.00,160.00 L 671.00,161.00 L 671.00,162.00 L 672.00,163.00 L 672.00,164.00 L 673.00,165.00 L 673.00,166.00 L 675.00,169.00 L 675.00,171.00 L 676.00,172.00 L 676.00,173.00 L 678.00,176.00 L 678.00,178.00 L 679.00,179.00 L 679.00,180.00 L 680.00,181.00 L 680.00,182.00 L 681.00,183.00 L 681.00,184.00 L 683.00,187.00 L 683.00,189.00 L 684.00,190.00 L 684.00,191.00 L 685.00,192.00 L 685.00,193.00 L 687.00,196.00 L 687.00,198.00 L 688.00,199.00 L 688.00,200.00 L 689.00,201.00 L 689.00,202.00 L 691.00,205.00 L 691.00,207.00 L 692.00,208.00 L 692.00,209.00 L 693.00,210.00 L 693.00,211.00 L 695.00,214.00 L 695.00,216.00 L 696.00,217.00 L 696.00,218.00 L 697.00,219.00 L 697.00,220.00 L 699.00,223.00 L 699.00,225.00 L 700.00,226.00 L 700.00,227.00 L 701.00,228.00 L 701.00,229.00 L 702.00,230.00 L 702.00,231.00 L 704.00,234.00 L 704.00,236.00 L 705.00,237.00 L 705.00,238.00 L 707.00,241.00 L 707.00,243.00 L 708.00,243.00 L 709.00,244.00 L 740.00,244.00 L 742.00,242.00 L 742.00,241.00 L 743.00,240.00 L 743.00,238.00 L 744.00,237.00 L 744.00,236.00 L 745.00,235.00 L 745.00,234.00 L 746.00,233.00 L 746.00,232.00 L 748.00,229.00 L 748.00,227.00 L 749.00,226.00 L 749.00,225.00 L 750.00,224.00 L 750.00,223.00 L 752.00,220.00 L 752.00,218.00 L 753.00,217.00 L 753.00,216.00 L 755.00,213.00 L 755.00,211.00 L 756.00,210.00 L 756.00,209.00 L 758.00,206.00 L 758.00,204.00 L 759.00,203.00 L 759.00,202.00 L 760.00,201.00 L 760.00,200.00 L 761.00,199.00 L 761.00,198.00 L 763.00,195.00 L 763.00,193.00 L 764.00,192.00 L 764.00,191.00 L 765.00,190.00 L 765.00,189.00 L 766.00,188.00 L 766.00,187.00 L 768.00,184.00 L 768.00,182.00 L 769.00,181.00 L 769.00,180.00 L 770.00,179.00 L 770.00,178.00 L 772.00,175.00 L 772.00,173.00 L 773.00,172.00 L 773.00,171.00 L 774.00,170.00 L 774.00,169.00 L 776.00,166.00 L 776.00,164.00 L 777.00,163.00 L 777.00,162.00 L 778.00,161.00 L 778.00,160.00 L 779.00,159.00 L 779.00,158.00 L 780.00,157.00 L 780.00,156.00 L 781.00,155.00 L 781.00,154.00 L 783.00,151.00 L 783.00,149.00 L 784.00,148.00 L 784.00,147.00 L 785.00,146.00 L 785.00,145.00 L 787.00,142.00 L 787.00,140.00 L 788.00,139.00 L 788.00,138.00 L 789.00,137.00 L 789.00,136.00 L 791.00,133.00 L 791.00,131.00 L 792.00,130.00 L 792.00,128.00 L 762.00,128.00 L 762.00,129.00 L 761.00,130.00 L 761.00,132.00 L 759.00,135.00 L 759.00,137.00 L 757.00,140.00 L 757.00,142.00 L 756.00,143.00 L 756.00,144.00 L 754.00,147.00 L 754.00,149.00 L 753.00,150.00 L 753.00,151.00 L 752.00,152.00 L 752.00,153.00 L 751.00,154.00 L 751.00,155.00 L 749.00,158.00 L 749.00,160.00 L 748.00,161.00 L 748.00,162.00 L 746.00,165.00 L 746.00,167.00 L 745.00,168.00 L 745.00,169.00 L 743.00,172.00 L 743.00,174.00 L 742.00,175.00 L 742.00,176.00 L 740.00,179.00 L 740.00,181.00 L 738.00,184.00 L 738.00,186.00 L 736.00,189.00 L 736.00,191.00 L 735.00,192.00 L 735.00,193.00 L 734.00,194.00 L 734.00,195.00 L 732.00,198.00 L 732.00,200.00 L 731.00,201.00 L 731.00,202.00 L 730.00,203.00 L 730.00,205.00 L 729.00,206.00 L 729.00,207.00 L 727.00,210.00 L 727.00,212.00 L 726.00,213.00 L 726.00,214.00 L 724.00,216.00 L 723.00,215.00 L 723.00,214.00 L 721.00,211.00 L 721.00,209.00 L 719.00,206.00 L 719.00,204.00 L 718.00,203.00 L 718.00,202.00 L 716.00,199.00 L 716.00,197.00 L 715.00,196.00 L 715.00,195.00 L 713.00,192.00 L 713.00,190.00 L 711.00,187.00 L 711.00,185.00 L 710.00,184.00 L 710.00,183.00 L 709.00,182.00 L 709.00,181.00 L 707.00,178.00 L 707.00,176.00 L 705.00,173.00 L 705.00,171.00 L 703.00,168.00 L 703.00,166.00 L 702.00,165.00 L 702.00,164.00 L 701.00,163.00 L 701.00,162.00 L 699.00,159.00 L 699.00,157.00 L 697.00,154.00 L 697.00,152.00 L 696.00,151.00 L 696.00,150.00 L 694.00,147.00 L 694.00,145.00 L 693.00,144.00 L 693.00,143.00 L 691.00,140.00 L 691.00,138.00 L 689.00,135.00 L 689.00,133.00 L 688.00,132.00 L 688.00,131.00 L 687.00,130.00 L 687.00,129.00 L 686.00,128.00 Z M 809.00,127.00 L 808.00,128.00 L 807.00,128.00 L 807.00,131.00 L 806.00,132.00 L 806.00,242.00 L 808.00,244.00 L 833.00,244.00 L 834.00,243.00 L 834.00,128.00 L 812.00,128.00 L 811.00,127.00 Z M 1144.00,134.00 L 1136.00,142.00 L 1136.00,143.00 L 1134.00,145.00 L 1134.00,146.00 L 1133.00,147.00 L 1133.00,149.00 L 1132.00,150.00 L 1132.00,152.00 L 1131.00,153.00 L 1131.00,155.00 L 1130.00,156.00 L 1130.00,161.00 L 1129.00,162.00 L 1129.00,208.00 L 1130.00,209.00 L 1130.00,215.00 L 1131.00,216.00 L 1131.00,219.00 L 1132.00,220.00 L 1132.00,222.00 L 1133.00,223.00 L 1133.00,224.00 L 1134.00,225.00 L 1134.00,226.00 L 1135.00,227.00 L 1135.00,228.00 L 1137.00,230.00 L 1137.00,231.00 L 1142.00,236.00 L 1143.00,236.00 L 1145.00,238.00 L 1146.00,238.00 L 1148.00,240.00 L 1150.00,240.00 L 1151.00,241.00 L 1153.00,241.00 L 1154.00,242.00 L 1156.00,242.00 L 1157.00,243.00 L 1162.00,243.00 L 1163.00,244.00 L 1172.00,244.00 L 1173.00,245.00 L 1205.00,245.00 L 1206.00,244.00 L 1218.00,244.00 L 1219.00,243.00 L 1224.00,243.00 L 1225.00,242.00 L 1228.00,242.00 L 1231.00,240.00 L 1233.00,240.00 L 1234.00,239.00 L 1235.00,239.00 L 1236.00,238.00 L 1237.00,238.00 L 1240.00,235.00 L 1241.00,235.00 L 1245.00,231.00 L 1245.00,230.00 L 1247.00,228.00 L 1247.00,227.00 L 1248.00,226.00 L 1248.00,225.00 L 1250.00,222.00 L 1250.00,220.00 L 1251.00,219.00 L 1251.00,217.00 L 1252.00,216.00 L 1252.00,212.00 L 1253.00,211.00 L 1253.00,203.00 L 1254.00,202.00 L 1254.00,168.00 L 1253.00,167.00 L 1253.00,160.00 L 1252.00,159.00 L 1252.00,155.00 L 1251.00,154.00 L 1251.00,152.00 L 1250.00,151.00 L 1250.00,149.00 L 1249.00,148.00 L 1249.00,147.00 L 1248.00,146.00 L 1248.00,145.00 L 1247.00,144.00 L 1247.00,143.00 L 1245.00,141.00 L 1245.00,140.00 L 1241.00,136.00 L 1240.00,136.00 L 1237.00,133.00 L 1236.00,133.00 L 1235.00,132.00 L 1234.00,132.00 L 1233.00,131.00 L 1232.00,131.00 L 1229.00,129.00 L 1226.00,129.00 L 1225.00,128.00 L 1222.00,128.00 L 1221.00,127.00 L 1215.00,127.00 L 1214.00,126.00 L 1168.00,126.00 L 1167.00,127.00 L 1161.00,127.00 L 1160.00,128.00 L 1157.00,128.00 L 1156.00,129.00 L 1153.00,129.00 L 1152.00,130.00 L 1151.00,130.00 L 1150.00,131.00 L 1149.00,131.00 L 1148.00,132.00 L 1147.00,132.00 L 1145.00,134.00 Z M 1165.00,155.00 L 1166.00,155.00 L 1169.00,153.00 L 1172.00,153.00 L 1173.00,152.00 L 1210.00,152.00 L 1211.00,153.00 L 1214.00,153.00 L 1215.00,154.00 L 1216.00,154.00 L 1217.00,155.00 L 1218.00,155.00 L 1223.00,160.00 L 1223.00,161.00 L 1225.00,164.00 L 1225.00,167.00 L 1226.00,168.00 L 1226.00,203.00 L 1225.00,204.00 L 1225.00,207.00 L 1224.00,208.00 L 1224.00,209.00 L 1223.00,210.00 L 1223.00,211.00 L 1218.00,216.00 L 1217.00,216.00 L 1214.00,218.00 L 1212.00,218.00 L 1211.00,219.00 L 1204.00,219.00 L 1203.00,220.00 L 1179.00,220.00 L 1178.00,219.00 L 1171.00,219.00 L 1170.00,218.00 L 1168.00,218.00 L 1167.00,217.00 L 1166.00,217.00 L 1165.00,216.00 L 1164.00,216.00 L 1160.00,212.00 L 1160.00,211.00 L 1158.00,208.00 L 1158.00,206.00 L 1157.00,205.00 L 1157.00,200.00 L 1156.00,199.00 L 1156.00,174.00 L 1157.00,173.00 L 1157.00,167.00 L 1158.00,166.00 L 1158.00,164.00 L 1159.00,163.00 L 1159.00,161.00 Z M 998.00,136.00 L 995.00,139.00 L 995.00,140.00 L 992.00,143.00 L 992.00,144.00 L 990.00,146.00 L 990.00,148.00 L 989.00,149.00 L 989.00,151.00 L 988.00,152.00 L 988.00,154.00 L 987.00,155.00 L 987.00,160.00 L 986.00,161.00 L 986.00,179.00 L 985.00,180.00 L 985.00,200.00 L 986.00,201.00 L 986.00,210.00 L 987.00,211.00 L 987.00,216.00 L 988.00,217.00 L 988.00,220.00 L 989.00,221.00 L 989.00,223.00 L 990.00,224.00 L 990.00,225.00 L 991.00,226.00 L 991.00,227.00 L 993.00,229.00 L 993.00,230.00 L 999.00,236.00 L 1000.00,236.00 L 1002.00,238.00 L 1003.00,238.00 L 1004.00,239.00 L 1005.00,239.00 L 1008.00,241.00 L 1010.00,241.00 L 1011.00,242.00 L 1013.00,242.00 L 1014.00,243.00 L 1019.00,243.00 L 1020.00,244.00 L 1076.00,244.00 L 1077.00,243.00 L 1082.00,243.00 L 1083.00,242.00 L 1086.00,242.00 L 1087.00,241.00 L 1088.00,241.00 L 1089.00,240.00 L 1090.00,240.00 L 1091.00,239.00 L 1092.00,239.00 L 1093.00,238.00 L 1094.00,238.00 L 1095.00,237.00 L 1096.00,237.00 L 1103.00,230.00 L 1103.00,229.00 L 1105.00,227.00 L 1105.00,226.00 L 1107.00,223.00 L 1107.00,221.00 L 1108.00,220.00 L 1108.00,218.00 L 1109.00,217.00 L 1109.00,214.00 L 1110.00,213.00 L 1110.00,207.00 L 1111.00,206.00 L 1111.00,165.00 L 1110.00,164.00 L 1110.00,158.00 L 1109.00,157.00 L 1109.00,154.00 L 1108.00,153.00 L 1108.00,151.00 L 1107.00,150.00 L 1107.00,148.00 L 1106.00,147.00 L 1106.00,146.00 L 1105.00,145.00 L 1105.00,144.00 L 1103.00,142.00 L 1103.00,141.00 L 1096.00,134.00 L 1095.00,134.00 L 1093.00,132.00 L 1092.00,132.00 L 1089.00,130.00 L 1087.00,130.00 L 1086.00,129.00 L 1084.00,129.00 L 1083.00,128.00 L 1079.00,128.00 L 1078.00,127.00 L 1072.00,127.00 L 1071.00,126.00 L 1025.00,126.00 L 1024.00,127.00 L 1018.00,127.00 L 1017.00,128.00 L 1013.00,128.00 L 1012.00,129.00 L 1010.00,129.00 L 1009.00,130.00 L 1008.00,130.00 L 1007.00,131.00 L 1006.00,131.00 L 1005.00,132.00 L 1004.00,132.00 L 1003.00,133.00 L 1002.00,133.00 L 999.00,136.00 Z M 1015.00,161.00 L 1022.00,154.00 L 1024.00,154.00 L 1025.00,153.00 L 1027.00,153.00 L 1028.00,152.00 L 1068.00,152.00 L 1069.00,153.00 L 1071.00,153.00 L 1072.00,154.00 L 1073.00,154.00 L 1074.00,155.00 L 1075.00,155.00 L 1080.00,160.00 L 1080.00,161.00 L 1082.00,164.00 L 1082.00,168.00 L 1083.00,169.00 L 1083.00,202.00 L 1082.00,203.00 L 1082.00,207.00 L 1081.00,208.00 L 1081.00,209.00 L 1080.00,210.00 L 1080.00,211.00 L 1079.00,212.00 L 1079.00,213.00 L 1077.00,215.00 L 1076.00,215.00 L 1074.00,217.00 L 1073.00,217.00 L 1072.00,218.00 L 1070.00,218.00 L 1069.00,219.00 L 1062.00,219.00 L 1061.00,220.00 L 1037.00,220.00 L 1036.00,219.00 L 1028.00,219.00 L 1027.00,218.00 L 1025.00,218.00 L 1024.00,217.00 L 1022.00,217.00 L 1015.00,210.00 L 1015.00,208.00 L 1014.00,207.00 L 1014.00,205.00 L 1013.00,204.00 L 1013.00,167.00 L 1014.00,166.00 L 1014.00,164.00 L 1015.00,163.00 Z M 541.00,137.00 L 541.00,138.00 L 537.00,142.00 L 537.00,143.00 L 535.00,145.00 L 535.00,146.00 L 533.00,149.00 L 533.00,151.00 L 532.00,152.00 L 532.00,156.00 L 531.00,157.00 L 531.00,164.00 L 530.00,165.00 L 530.00,211.00 L 531.00,212.00 L 531.00,218.00 L 532.00,219.00 L 532.00,221.00 L 533.00,222.00 L 533.00,224.00 L 534.00,225.00 L 534.00,226.00 L 535.00,227.00 L 535.00,228.00 L 537.00,230.00 L 537.00,231.00 L 542.00,236.00 L 543.00,236.00 L 545.00,238.00 L 546.00,238.00 L 548.00,240.00 L 550.00,240.00 L 553.00,242.00 L 556.00,242.00 L 557.00,243.00 L 561.00,243.00 L 562.00,244.00 L 621.00,244.00 L 622.00,243.00 L 626.00,243.00 L 627.00,242.00 L 630.00,242.00 L 631.00,241.00 L 632.00,241.00 L 633.00,240.00 L 634.00,240.00 L 635.00,239.00 L 636.00,239.00 L 637.00,238.00 L 638.00,238.00 L 644.00,232.00 L 644.00,231.00 L 646.00,229.00 L 646.00,228.00 L 648.00,225.00 L 648.00,223.00 L 649.00,222.00 L 649.00,219.00 L 650.00,218.00 L 650.00,213.00 L 651.00,212.00 L 651.00,210.00 L 649.00,208.00 L 624.00,208.00 L 623.00,209.00 L 623.00,212.00 L 622.00,213.00 L 622.00,214.00 L 618.00,218.00 L 616.00,218.00 L 615.00,219.00 L 609.00,219.00 L 608.00,220.00 L 575.00,220.00 L 574.00,219.00 L 568.00,219.00 L 567.00,218.00 L 565.00,218.00 L 564.00,217.00 L 563.00,217.00 L 560.00,214.00 L 560.00,213.00 L 558.00,211.00 L 558.00,209.00 L 557.00,208.00 L 557.00,196.00 L 558.00,195.00 L 578.00,195.00 L 579.00,194.00 L 603.00,194.00 L 604.00,195.00 L 612.00,195.00 L 613.00,194.00 L 622.00,194.00 L 623.00,195.00 L 650.00,195.00 L 652.00,193.00 L 652.00,163.00 L 651.00,162.00 L 651.00,157.00 L 650.00,156.00 L 650.00,153.00 L 649.00,152.00 L 649.00,150.00 L 648.00,149.00 L 648.00,147.00 L 647.00,146.00 L 647.00,145.00 L 645.00,143.00 L 645.00,142.00 L 643.00,140.00 L 643.00,139.00 L 640.00,136.00 L 639.00,136.00 L 636.00,133.00 L 635.00,133.00 L 634.00,132.00 L 633.00,132.00 L 632.00,131.00 L 631.00,131.00 L 628.00,129.00 L 625.00,129.00 L 624.00,128.00 L 621.00,128.00 L 620.00,127.00 L 612.00,127.00 L 611.00,126.00 L 571.00,126.00 L 570.00,127.00 L 563.00,127.00 L 562.00,128.00 L 558.00,128.00 L 557.00,129.00 L 555.00,129.00 L 554.00,130.00 L 552.00,130.00 L 551.00,131.00 L 550.00,131.00 L 549.00,132.00 L 548.00,132.00 L 546.00,134.00 L 545.00,134.00 L 542.00,137.00 Z M 624.00,163.00 L 624.00,172.00 L 622.00,174.00 L 558.00,174.00 L 557.00,173.00 L 557.00,165.00 L 558.00,164.00 L 558.00,162.00 L 559.00,161.00 L 559.00,160.00 L 560.00,159.00 L 560.00,158.00 L 564.00,154.00 L 565.00,154.00 L 566.00,153.00 L 568.00,153.00 L 569.00,152.00 L 593.00,152.00 L 594.00,151.00 L 595.00,151.00 L 596.00,152.00 L 612.00,152.00 L 613.00,153.00 L 616.00,153.00 L 617.00,154.00 L 618.00,154.00 L 622.00,158.00 L 622.00,159.00 L 623.00,160.00 L 623.00,162.00 Z M 808.00,84.00 L 806.00,86.00 L 806.00,110.00 L 807.00,111.00 L 807.00,112.00 L 833.00,112.00 L 835.00,110.00 L 835.00,86.00 L 833.00,84.00 Z M 367.00,84.00 L 366.00,85.00 L 366.00,243.00 L 367.00,244.00 L 394.00,244.00 L 395.00,243.00 L 395.00,195.00 L 397.00,193.00 L 441.00,193.00 L 445.00,197.00 L 445.00,198.00 L 449.00,202.00 L 449.00,203.00 L 454.00,208.00 L 454.00,209.00 L 457.00,212.00 L 457.00,213.00 L 461.00,217.00 L 461.00,218.00 L 466.00,223.00 L 466.00,224.00 L 470.00,228.00 L 470.00,229.00 L 473.00,232.00 L 473.00,233.00 L 478.00,238.00 L 478.00,239.00 L 481.00,242.00 L 481.00,243.00 L 482.00,244.00 L 516.00,244.00 L 517.00,243.00 L 517.00,242.00 L 516.00,241.00 L 516.00,240.00 L 512.00,236.00 L 512.00,235.00 L 508.00,231.00 L 508.00,230.00 L 502.00,224.00 L 502.00,223.00 L 497.00,218.00 L 497.00,217.00 L 492.00,212.00 L 492.00,211.00 L 486.00,205.00 L 486.00,204.00 L 481.00,199.00 L 481.00,198.00 L 476.00,193.00 L 476.00,192.00 L 478.00,190.00 L 483.00,190.00 L 484.00,189.00 L 487.00,189.00 L 488.00,188.00 L 490.00,188.00 L 491.00,187.00 L 493.00,187.00 L 494.00,186.00 L 495.00,186.00 L 497.00,184.00 L 498.00,184.00 L 499.00,183.00 L 500.00,183.00 L 506.00,177.00 L 506.00,176.00 L 508.00,174.00 L 508.00,173.00 L 509.00,172.00 L 509.00,171.00 L 511.00,168.00 L 511.00,166.00 L 512.00,165.00 L 512.00,162.00 L 513.00,161.00 L 513.00,154.00 L 514.00,153.00 L 514.00,122.00 L 513.00,121.00 L 513.00,114.00 L 512.00,113.00 L 512.00,110.00 L 511.00,109.00 L 511.00,107.00 L 510.00,106.00 L 510.00,105.00 L 509.00,104.00 L 509.00,103.00 L 508.00,102.00 L 508.00,101.00 L 505.00,98.00 L 505.00,97.00 L 502.00,94.00 L 501.00,94.00 L 498.00,91.00 L 497.00,91.00 L 494.00,89.00 L 492.00,89.00 L 491.00,88.00 L 489.00,88.00 L 488.00,87.00 L 485.00,87.00 L 484.00,86.00 L 481.00,86.00 L 480.00,85.00 L 472.00,85.00 L 471.00,84.00 Z M 395.00,114.00 L 397.00,112.00 L 469.00,112.00 L 470.00,113.00 L 473.00,113.00 L 474.00,114.00 L 476.00,114.00 L 478.00,116.00 L 479.00,116.00 L 481.00,118.00 L 481.00,119.00 L 483.00,122.00 L 483.00,124.00 L 484.00,125.00 L 484.00,151.00 L 483.00,152.00 L 483.00,155.00 L 482.00,156.00 L 482.00,157.00 L 481.00,158.00 L 481.00,159.00 L 477.00,163.00 L 476.00,163.00 L 473.00,165.00 L 469.00,165.00 L 468.00,166.00 L 397.00,166.00 L 395.00,164.00 Z M 862.00,83.00 L 861.00,84.00 L 861.00,243.00 L 862.00,244.00 L 888.00,244.00 L 889.00,243.00 L 889.00,196.00 L 891.00,194.00 L 908.00,194.00 L 911.00,197.00 L 911.00,198.00 L 914.00,201.00 L 914.00,202.00 L 918.00,206.00 L 918.00,207.00 L 921.00,210.00 L 921.00,211.00 L 925.00,215.00 L 925.00,216.00 L 928.00,219.00 L 928.00,220.00 L 933.00,225.00 L 933.00,226.00 L 937.00,230.00 L 937.00,231.00 L 940.00,234.00 L 940.00,235.00 L 944.00,239.00 L 944.00,240.00 L 948.00,244.00 L 979.00,244.00 L 980.00,243.00 L 980.00,242.00 L 978.00,240.00 L 978.00,239.00 L 974.00,235.00 L 974.00,234.00 L 970.00,230.00 L 970.00,229.00 L 965.00,224.00 L 965.00,223.00 L 961.00,219.00 L 961.00,218.00 L 957.00,214.00 L 957.00,213.00 L 953.00,209.00 L 953.00,208.00 L 949.00,204.00 L 949.00,203.00 L 946.00,200.00 L 946.00,199.00 L 941.00,194.00 L 941.00,193.00 L 937.00,189.00 L 937.00,188.00 L 934.00,185.00 L 934.00,184.00 L 933.00,183.00 L 933.00,181.00 L 936.00,178.00 L 936.00,177.00 L 943.00,170.00 L 943.00,169.00 L 950.00,162.00 L 950.00,161.00 L 957.00,154.00 L 957.00,153.00 L 963.00,147.00 L 963.00,146.00 L 969.00,140.00 L 969.00,139.00 L 975.00,133.00 L 975.00,132.00 L 977.00,130.00 L 977.00,128.00 L 945.00,128.00 L 941.00,132.00 L 941.00,133.00 L 935.00,139.00 L 935.00,140.00 L 929.00,146.00 L 929.00,147.00 L 925.00,151.00 L 925.00,152.00 L 920.00,157.00 L 920.00,158.00 L 916.00,162.00 L 916.00,163.00 L 908.00,171.00 L 890.00,171.00 L 889.00,170.00 L 889.00,84.00 L 888.00,83.00 Z" fill="#FFFFFF" fill-rule="evenodd"/>
</svg>
