<?xml version="1.0" encoding="UTF-8"?>
<svg xmlns="http://www.w3.org/2000/svg"
     width="1251"
     height="279"
     viewBox="0 0 1251 279"
     role="img"
     aria-labelledby="revikoo-title revikoo-desc">
  <title id="revikoo-title">Revikoo</title>
  <desc id="revikoo-desc">Logotipo vectorial de Revikoo trazado desde el recurso original aprobado.</desc>
  <defs>
    <linearGradient id="revikoo-violet" x1="0" y1="0" x2="0" y2="1">
      <stop offset="0%" stop-color="#852BFB"/>
      <stop offset="25%" stop-color="#7B28F9"/>
      <stop offset="50%" stop-color="#7223F8"/>
      <stop offset="75%" stop-color="#601AF5"/>
      <stop offset="100%" stop-color="#500FEE"/>
    </linearGradient>
  </defs>
  <path d="M 20.00,21.00 L 78.00,77.00 L 187.00,78.00 L 190.00,87.00 L 113.00,175.00 L 109.00,184.00 L 187.00,257.00 L 268.00,256.00 L 185.00,180.00 L 267.00,85.00 L 267.00,81.00 L 207.00,21.00 Z" fill="url(#revikoo-violet)" fill-rule="evenodd"/>
  <path d="M 22.00,78.00 L 21.00,214.00 L 80.00,258.00 L 80.00,106.00 Z" fill="url(#revikoo-violet)" fill-rule="evenodd"/>
  <path d="M 788.00,124.00 L 786.00,126.00 L 786.00,238.00 L 788.00,240.00 L 812.00,240.00 L 813.00,239.00 L 813.00,125.00 L 812.00,124.00 Z M 636.00,124.00 L 635.00,125.00 L 635.00,128.00 L 636.00,129.00 L 636.00,130.00 L 637.00,131.00 L 637.00,132.00 L 639.00,135.00 L 639.00,137.00 L 640.00,138.00 L 640.00,139.00 L 641.00,140.00 L 641.00,141.00 L 643.00,144.00 L 643.00,146.00 L 644.00,147.00 L 644.00,148.00 L 645.00,149.00 L 645.00,150.00 L 646.00,151.00 L 646.00,152.00 L 647.00,153.00 L 647.00,154.00 L 648.00,155.00 L 648.00,156.00 L 649.00,157.00 L 649.00,158.00 L 650.00,159.00 L 650.00,160.00 L 651.00,161.00 L 651.00,162.00 L 653.00,165.00 L 653.00,167.00 L 654.00,168.00 L 654.00,169.00 L 655.00,170.00 L 655.00,171.00 L 656.00,172.00 L 656.00,173.00 L 657.00,174.00 L 657.00,175.00 L 659.00,178.00 L 659.00,180.00 L 660.00,181.00 L 660.00,182.00 L 661.00,183.00 L 661.00,184.00 L 662.00,185.00 L 662.00,186.00 L 663.00,187.00 L 663.00,188.00 L 665.00,191.00 L 665.00,193.00 L 666.00,194.00 L 666.00,195.00 L 667.00,196.00 L 667.00,197.00 L 668.00,198.00 L 668.00,199.00 L 669.00,200.00 L 669.00,201.00 L 671.00,204.00 L 671.00,206.00 L 672.00,207.00 L 672.00,208.00 L 673.00,209.00 L 673.00,210.00 L 674.00,211.00 L 674.00,212.00 L 675.00,213.00 L 675.00,214.00 L 676.00,215.00 L 676.00,216.00 L 678.00,219.00 L 678.00,221.00 L 679.00,222.00 L 679.00,223.00 L 680.00,224.00 L 680.00,225.00 L 681.00,226.00 L 681.00,227.00 L 682.00,228.00 L 682.00,229.00 L 684.00,232.00 L 684.00,234.00 L 685.00,235.00 L 685.00,236.00 L 686.00,237.00 L 686.00,238.00 L 689.00,240.00 L 717.00,240.00 L 719.00,238.00 L 719.00,236.00 L 720.00,235.00 L 720.00,234.00 L 721.00,233.00 L 721.00,232.00 L 722.00,231.00 L 722.00,230.00 L 723.00,229.00 L 723.00,228.00 L 724.00,227.00 L 724.00,226.00 L 726.00,223.00 L 726.00,221.00 L 727.00,220.00 L 727.00,219.00 L 728.00,218.00 L 728.00,217.00 L 729.00,216.00 L 729.00,215.00 L 730.00,214.00 L 730.00,213.00 L 731.00,212.00 L 731.00,211.00 L 732.00,210.00 L 732.00,209.00 L 733.00,208.00 L 733.00,207.00 L 734.00,206.00 L 734.00,205.00 L 736.00,202.00 L 736.00,200.00 L 737.00,199.00 L 737.00,198.00 L 738.00,197.00 L 738.00,196.00 L 739.00,195.00 L 739.00,194.00 L 740.00,193.00 L 740.00,192.00 L 741.00,191.00 L 741.00,190.00 L 743.00,187.00 L 743.00,185.00 L 744.00,184.00 L 744.00,183.00 L 745.00,182.00 L 745.00,181.00 L 746.00,180.00 L 746.00,179.00 L 747.00,178.00 L 747.00,177.00 L 748.00,176.00 L 748.00,175.00 L 749.00,174.00 L 749.00,173.00 L 750.00,172.00 L 750.00,171.00 L 751.00,170.00 L 751.00,169.00 L 752.00,168.00 L 752.00,167.00 L 754.00,164.00 L 754.00,162.00 L 755.00,161.00 L 755.00,160.00 L 757.00,157.00 L 757.00,155.00 L 758.00,154.00 L 758.00,153.00 L 759.00,152.00 L 759.00,151.00 L 760.00,150.00 L 760.00,149.00 L 761.00,148.00 L 761.00,147.00 L 762.00,146.00 L 762.00,145.00 L 763.00,144.00 L 763.00,143.00 L 764.00,142.00 L 764.00,141.00 L 765.00,140.00 L 765.00,139.00 L 766.00,138.00 L 766.00,137.00 L 767.00,136.00 L 767.00,135.00 L 768.00,134.00 L 768.00,133.00 L 770.00,130.00 L 770.00,128.00 L 771.00,127.00 L 771.00,125.00 L 770.00,124.00 L 743.00,124.00 L 742.00,125.00 L 742.00,126.00 L 741.00,127.00 L 741.00,128.00 L 740.00,129.00 L 740.00,130.00 L 738.00,133.00 L 738.00,135.00 L 737.00,136.00 L 737.00,137.00 L 736.00,138.00 L 736.00,139.00 L 735.00,140.00 L 735.00,141.00 L 733.00,144.00 L 733.00,146.00 L 732.00,147.00 L 732.00,148.00 L 731.00,149.00 L 731.00,150.00 L 730.00,151.00 L 730.00,152.00 L 729.00,153.00 L 729.00,154.00 L 727.00,157.00 L 727.00,159.00 L 726.00,160.00 L 726.00,161.00 L 725.00,162.00 L 725.00,163.00 L 724.00,164.00 L 724.00,165.00 L 722.00,168.00 L 722.00,170.00 L 721.00,171.00 L 721.00,172.00 L 720.00,173.00 L 720.00,174.00 L 718.00,177.00 L 718.00,179.00 L 717.00,180.00 L 717.00,181.00 L 716.00,182.00 L 716.00,183.00 L 715.00,184.00 L 715.00,185.00 L 713.00,188.00 L 713.00,190.00 L 712.00,191.00 L 712.00,192.00 L 711.00,193.00 L 711.00,194.00 L 710.00,195.00 L 710.00,196.00 L 708.00,199.00 L 708.00,201.00 L 707.00,202.00 L 707.00,203.00 L 705.00,206.00 L 705.00,208.00 L 703.00,210.00 L 702.00,210.00 L 701.00,209.00 L 701.00,208.00 L 700.00,207.00 L 700.00,206.00 L 698.00,203.00 L 698.00,201.00 L 697.00,200.00 L 697.00,199.00 L 696.00,198.00 L 696.00,197.00 L 694.00,194.00 L 694.00,192.00 L 693.00,191.00 L 693.00,190.00 L 692.00,189.00 L 692.00,188.00 L 690.00,185.00 L 690.00,183.00 L 689.00,182.00 L 689.00,181.00 L 688.00,180.00 L 688.00,179.00 L 686.00,176.00 L 686.00,174.00 L 685.00,173.00 L 685.00,172.00 L 683.00,169.00 L 683.00,167.00 L 682.00,166.00 L 682.00,165.00 L 681.00,164.00 L 681.00,163.00 L 679.00,160.00 L 679.00,158.00 L 678.00,157.00 L 678.00,156.00 L 677.00,155.00 L 677.00,154.00 L 676.00,153.00 L 676.00,152.00 L 674.00,149.00 L 674.00,147.00 L 673.00,146.00 L 673.00,145.00 L 671.00,142.00 L 671.00,140.00 L 670.00,139.00 L 670.00,138.00 L 669.00,137.00 L 669.00,136.00 L 667.00,133.00 L 667.00,131.00 L 666.00,130.00 L 666.00,129.00 L 665.00,128.00 L 665.00,127.00 L 664.00,126.00 L 664.00,125.00 L 663.00,124.00 Z M 1119.00,131.00 L 1112.00,138.00 L 1112.00,139.00 L 1110.00,141.00 L 1110.00,142.00 L 1108.00,145.00 L 1108.00,147.00 L 1107.00,148.00 L 1107.00,151.00 L 1106.00,152.00 L 1106.00,157.00 L 1105.00,158.00 L 1105.00,203.00 L 1106.00,204.00 L 1106.00,210.00 L 1107.00,211.00 L 1107.00,214.00 L 1108.00,215.00 L 1108.00,217.00 L 1109.00,218.00 L 1109.00,219.00 L 1110.00,220.00 L 1110.00,221.00 L 1111.00,222.00 L 1111.00,223.00 L 1112.00,224.00 L 1112.00,225.00 L 1116.00,229.00 L 1116.00,230.00 L 1117.00,231.00 L 1118.00,231.00 L 1121.00,234.00 L 1122.00,234.00 L 1123.00,235.00 L 1124.00,235.00 L 1127.00,237.00 L 1129.00,237.00 L 1130.00,238.00 L 1132.00,238.00 L 1133.00,239.00 L 1136.00,239.00 L 1137.00,240.00 L 1144.00,240.00 L 1145.00,241.00 L 1188.00,241.00 L 1189.00,240.00 L 1196.00,240.00 L 1197.00,239.00 L 1201.00,239.00 L 1202.00,238.00 L 1204.00,238.00 L 1205.00,237.00 L 1207.00,237.00 L 1208.00,236.00 L 1209.00,236.00 L 1210.00,235.00 L 1211.00,235.00 L 1212.00,234.00 L 1213.00,234.00 L 1216.00,231.00 L 1217.00,231.00 L 1220.00,228.00 L 1220.00,227.00 L 1223.00,224.00 L 1223.00,223.00 L 1224.00,222.00 L 1224.00,221.00 L 1226.00,218.00 L 1226.00,216.00 L 1227.00,215.00 L 1227.00,213.00 L 1228.00,212.00 L 1228.00,207.00 L 1229.00,206.00 L 1229.00,175.00 L 1230.00,174.00 L 1230.00,171.00 L 1229.00,170.00 L 1229.00,156.00 L 1228.00,155.00 L 1228.00,151.00 L 1227.00,150.00 L 1227.00,147.00 L 1226.00,146.00 L 1226.00,145.00 L 1225.00,144.00 L 1225.00,143.00 L 1224.00,142.00 L 1224.00,141.00 L 1223.00,140.00 L 1223.00,139.00 L 1220.00,136.00 L 1220.00,135.00 L 1218.00,133.00 L 1217.00,133.00 L 1214.00,130.00 L 1213.00,130.00 L 1211.00,128.00 L 1210.00,128.00 L 1209.00,127.00 L 1207.00,127.00 L 1206.00,126.00 L 1204.00,126.00 L 1203.00,125.00 L 1201.00,125.00 L 1200.00,124.00 L 1196.00,124.00 L 1195.00,123.00 L 1183.00,123.00 L 1182.00,122.00 L 1150.00,122.00 L 1149.00,123.00 L 1139.00,123.00 L 1138.00,124.00 L 1134.00,124.00 L 1133.00,125.00 L 1131.00,125.00 L 1130.00,126.00 L 1128.00,126.00 L 1127.00,127.00 L 1126.00,127.00 L 1125.00,128.00 L 1124.00,128.00 L 1123.00,129.00 L 1122.00,129.00 L 1120.00,131.00 Z M 1135.00,156.00 L 1140.00,151.00 L 1141.00,151.00 L 1142.00,150.00 L 1144.00,150.00 L 1145.00,149.00 L 1148.00,149.00 L 1149.00,148.00 L 1186.00,148.00 L 1187.00,149.00 L 1190.00,149.00 L 1191.00,150.00 L 1192.00,150.00 L 1193.00,151.00 L 1194.00,151.00 L 1195.00,152.00 L 1196.00,152.00 L 1198.00,154.00 L 1198.00,155.00 L 1200.00,157.00 L 1200.00,158.00 L 1201.00,159.00 L 1201.00,162.00 L 1202.00,163.00 L 1202.00,200.00 L 1201.00,201.00 L 1201.00,204.00 L 1200.00,205.00 L 1200.00,206.00 L 1199.00,207.00 L 1199.00,208.00 L 1196.00,211.00 L 1195.00,211.00 L 1193.00,213.00 L 1192.00,213.00 L 1191.00,214.00 L 1188.00,214.00 L 1187.00,215.00 L 1182.00,215.00 L 1181.00,216.00 L 1153.00,216.00 L 1152.00,215.00 L 1146.00,215.00 L 1145.00,214.00 L 1143.00,214.00 L 1142.00,213.00 L 1141.00,213.00 L 1139.00,211.00 L 1138.00,211.00 L 1136.00,209.00 L 1136.00,208.00 L 1134.00,206.00 L 1134.00,204.00 L 1133.00,203.00 L 1133.00,199.00 L 1132.00,198.00 L 1132.00,165.00 L 1133.00,164.00 L 1133.00,160.00 L 1134.00,159.00 L 1134.00,158.00 L 1135.00,157.00 Z M 977.00,131.00 L 970.00,138.00 L 970.00,139.00 L 968.00,141.00 L 968.00,142.00 L 966.00,145.00 L 966.00,147.00 L 965.00,148.00 L 965.00,150.00 L 964.00,151.00 L 964.00,155.00 L 963.00,156.00 L 963.00,168.00 L 962.00,169.00 L 962.00,195.00 L 963.00,196.00 L 963.00,207.00 L 964.00,208.00 L 964.00,211.00 L 965.00,212.00 L 965.00,214.00 L 966.00,215.00 L 966.00,217.00 L 967.00,218.00 L 967.00,219.00 L 968.00,220.00 L 968.00,221.00 L 969.00,222.00 L 969.00,223.00 L 970.00,224.00 L 970.00,225.00 L 978.00,233.00 L 979.00,233.00 L 981.00,235.00 L 982.00,235.00 L 985.00,237.00 L 987.00,237.00 L 988.00,238.00 L 990.00,238.00 L 991.00,239.00 L 994.00,239.00 L 995.00,240.00 L 1003.00,240.00 L 1004.00,241.00 L 1045.00,241.00 L 1046.00,240.00 L 1054.00,240.00 L 1055.00,239.00 L 1059.00,239.00 L 1060.00,238.00 L 1062.00,238.00 L 1063.00,237.00 L 1065.00,237.00 L 1066.00,236.00 L 1067.00,236.00 L 1068.00,235.00 L 1069.00,235.00 L 1071.00,233.00 L 1072.00,233.00 L 1080.00,225.00 L 1080.00,224.00 L 1082.00,222.00 L 1082.00,221.00 L 1083.00,220.00 L 1083.00,218.00 L 1084.00,217.00 L 1084.00,215.00 L 1085.00,214.00 L 1085.00,211.00 L 1086.00,210.00 L 1086.00,205.00 L 1087.00,204.00 L 1087.00,160.00 L 1086.00,159.00 L 1086.00,154.00 L 1085.00,153.00 L 1085.00,150.00 L 1084.00,149.00 L 1084.00,147.00 L 1083.00,146.00 L 1083.00,144.00 L 1082.00,143.00 L 1082.00,142.00 L 1081.00,141.00 L 1081.00,140.00 L 1078.00,137.00 L 1078.00,136.00 L 1073.00,131.00 L 1072.00,131.00 L 1070.00,129.00 L 1069.00,129.00 L 1068.00,128.00 L 1067.00,128.00 L 1064.00,126.00 L 1062.00,126.00 L 1061.00,125.00 L 1058.00,125.00 L 1057.00,124.00 L 1053.00,124.00 L 1052.00,123.00 L 1041.00,123.00 L 1040.00,122.00 L 1009.00,122.00 L 1008.00,123.00 L 998.00,123.00 L 997.00,124.00 L 992.00,124.00 L 991.00,125.00 L 989.00,125.00 L 988.00,126.00 L 986.00,126.00 L 985.00,127.00 L 984.00,127.00 L 983.00,128.00 L 982.00,128.00 L 981.00,129.00 L 980.00,129.00 L 978.00,131.00 Z M 993.00,155.00 L 996.00,152.00 L 997.00,152.00 L 999.00,150.00 L 1001.00,150.00 L 1002.00,149.00 L 1005.00,149.00 L 1006.00,148.00 L 1043.00,148.00 L 1044.00,149.00 L 1048.00,149.00 L 1049.00,150.00 L 1050.00,150.00 L 1051.00,151.00 L 1052.00,151.00 L 1057.00,156.00 L 1057.00,157.00 L 1059.00,160.00 L 1059.00,163.00 L 1060.00,164.00 L 1060.00,200.00 L 1059.00,201.00 L 1059.00,204.00 L 1058.00,205.00 L 1058.00,206.00 L 1056.00,208.00 L 1056.00,209.00 L 1054.00,211.00 L 1053.00,211.00 L 1051.00,213.00 L 1049.00,213.00 L 1048.00,214.00 L 1046.00,214.00 L 1045.00,215.00 L 1041.00,215.00 L 1040.00,216.00 L 1010.00,216.00 L 1009.00,215.00 L 1004.00,215.00 L 1003.00,214.00 L 1001.00,214.00 L 1000.00,213.00 L 999.00,213.00 L 998.00,212.00 L 997.00,212.00 L 992.00,207.00 L 992.00,205.00 L 991.00,204.00 L 991.00,202.00 L 990.00,201.00 L 990.00,194.00 L 989.00,193.00 L 989.00,171.00 L 990.00,170.00 L 990.00,162.00 L 991.00,161.00 L 991.00,159.00 L 992.00,158.00 L 992.00,157.00 L 993.00,156.00 Z M 522.00,131.00 L 515.00,138.00 L 515.00,139.00 L 513.00,141.00 L 513.00,142.00 L 511.00,145.00 L 511.00,147.00 L 510.00,148.00 L 510.00,151.00 L 509.00,152.00 L 509.00,156.00 L 508.00,157.00 L 508.00,205.00 L 509.00,206.00 L 509.00,212.00 L 510.00,213.00 L 510.00,216.00 L 511.00,217.00 L 511.00,219.00 L 512.00,220.00 L 512.00,221.00 L 513.00,222.00 L 513.00,223.00 L 515.00,225.00 L 515.00,226.00 L 523.00,234.00 L 524.00,234.00 L 525.00,235.00 L 526.00,235.00 L 529.00,237.00 L 531.00,237.00 L 532.00,238.00 L 534.00,238.00 L 535.00,239.00 L 538.00,239.00 L 539.00,240.00 L 549.00,240.00 L 550.00,241.00 L 589.00,241.00 L 590.00,240.00 L 600.00,240.00 L 601.00,239.00 L 604.00,239.00 L 605.00,238.00 L 607.00,238.00 L 608.00,237.00 L 610.00,237.00 L 611.00,236.00 L 612.00,236.00 L 613.00,235.00 L 614.00,235.00 L 616.00,233.00 L 617.00,233.00 L 622.00,228.00 L 622.00,227.00 L 624.00,225.00 L 624.00,224.00 L 625.00,223.00 L 625.00,222.00 L 627.00,219.00 L 627.00,216.00 L 628.00,215.00 L 628.00,212.00 L 629.00,211.00 L 629.00,204.00 L 628.00,203.00 L 615.00,203.00 L 614.00,202.00 L 604.00,202.00 L 602.00,205.00 L 602.00,208.00 L 601.00,209.00 L 601.00,210.00 L 598.00,213.00 L 597.00,213.00 L 594.00,215.00 L 591.00,215.00 L 590.00,216.00 L 550.00,216.00 L 549.00,215.00 L 546.00,215.00 L 545.00,214.00 L 543.00,214.00 L 538.00,209.00 L 538.00,208.00 L 536.00,205.00 L 536.00,192.00 L 537.00,191.00 L 628.00,191.00 L 630.00,189.00 L 630.00,157.00 L 629.00,156.00 L 629.00,152.00 L 628.00,151.00 L 628.00,147.00 L 627.00,146.00 L 627.00,145.00 L 626.00,144.00 L 626.00,142.00 L 625.00,141.00 L 625.00,140.00 L 623.00,138.00 L 623.00,137.00 L 617.00,131.00 L 616.00,131.00 L 614.00,129.00 L 613.00,129.00 L 612.00,128.00 L 611.00,128.00 L 608.00,126.00 L 606.00,126.00 L 605.00,125.00 L 602.00,125.00 L 601.00,124.00 L 597.00,124.00 L 596.00,123.00 L 578.00,123.00 L 577.00,122.00 L 554.00,122.00 L 553.00,123.00 L 543.00,123.00 L 542.00,124.00 L 538.00,124.00 L 537.00,125.00 L 534.00,125.00 L 533.00,126.00 L 531.00,126.00 L 530.00,127.00 L 529.00,127.00 L 528.00,128.00 L 527.00,128.00 L 526.00,129.00 L 525.00,129.00 L 523.00,131.00 Z M 536.00,159.00 L 537.00,158.00 L 537.00,156.00 L 543.00,150.00 L 545.00,150.00 L 546.00,149.00 L 549.00,149.00 L 550.00,148.00 L 590.00,148.00 L 591.00,149.00 L 594.00,149.00 L 595.00,150.00 L 596.00,150.00 L 598.00,152.00 L 599.00,152.00 L 600.00,153.00 L 600.00,154.00 L 602.00,156.00 L 602.00,158.00 L 603.00,159.00 L 603.00,169.00 L 602.00,170.00 L 537.00,170.00 L 536.00,169.00 Z M 841.00,81.00 L 839.00,83.00 L 839.00,94.00 L 840.00,95.00 L 840.00,96.00 L 839.00,97.00 L 839.00,142.00 L 840.00,143.00 L 840.00,239.00 L 841.00,240.00 L 865.00,240.00 L 867.00,238.00 L 867.00,192.00 L 869.00,190.00 L 884.00,190.00 L 889.00,195.00 L 889.00,196.00 L 893.00,200.00 L 893.00,201.00 L 896.00,204.00 L 896.00,205.00 L 900.00,209.00 L 900.00,210.00 L 903.00,213.00 L 903.00,214.00 L 906.00,217.00 L 906.00,218.00 L 909.00,221.00 L 909.00,222.00 L 914.00,227.00 L 914.00,228.00 L 917.00,231.00 L 917.00,232.00 L 920.00,235.00 L 920.00,236.00 L 924.00,240.00 L 955.00,240.00 L 955.00,239.00 L 956.00,238.00 L 956.00,237.00 L 955.00,236.00 L 955.00,235.00 L 951.00,231.00 L 951.00,230.00 L 946.00,225.00 L 946.00,224.00 L 941.00,219.00 L 941.00,218.00 L 937.00,214.00 L 937.00,213.00 L 932.00,208.00 L 932.00,207.00 L 927.00,202.00 L 927.00,201.00 L 923.00,197.00 L 923.00,196.00 L 919.00,192.00 L 919.00,191.00 L 914.00,186.00 L 914.00,185.00 L 909.00,180.00 L 909.00,179.00 L 908.00,178.00 L 913.00,173.00 L 913.00,172.00 L 924.00,161.00 L 924.00,160.00 L 935.00,149.00 L 935.00,148.00 L 946.00,137.00 L 946.00,136.00 L 954.00,128.00 L 954.00,125.00 L 953.00,124.00 L 923.00,124.00 L 919.00,128.00 L 919.00,129.00 L 909.00,139.00 L 909.00,140.00 L 903.00,146.00 L 903.00,147.00 L 894.00,156.00 L 894.00,157.00 L 884.00,167.00 L 868.00,167.00 L 867.00,166.00 L 867.00,82.00 L 866.00,81.00 Z M 788.00,81.00 L 786.00,83.00 L 786.00,107.00 L 788.00,109.00 L 812.00,109.00 L 813.00,108.00 L 813.00,82.00 L 812.00,81.00 Z M 348.00,81.00 L 346.00,83.00 L 346.00,238.00 L 348.00,240.00 L 373.00,240.00 L 375.00,238.00 L 375.00,191.00 L 376.00,190.00 L 421.00,190.00 L 424.00,193.00 L 424.00,194.00 L 427.00,197.00 L 427.00,198.00 L 430.00,201.00 L 430.00,202.00 L 434.00,206.00 L 434.00,207.00 L 438.00,211.00 L 438.00,212.00 L 441.00,215.00 L 441.00,216.00 L 445.00,220.00 L 445.00,221.00 L 450.00,226.00 L 450.00,227.00 L 454.00,231.00 L 454.00,232.00 L 457.00,235.00 L 457.00,236.00 L 461.00,240.00 L 494.00,240.00 L 495.00,239.00 L 495.00,237.00 L 494.00,236.00 L 494.00,235.00 L 489.00,230.00 L 489.00,229.00 L 483.00,223.00 L 483.00,222.00 L 477.00,216.00 L 477.00,215.00 L 473.00,211.00 L 473.00,210.00 L 468.00,205.00 L 468.00,204.00 L 462.00,198.00 L 462.00,197.00 L 458.00,193.00 L 458.00,192.00 L 456.00,190.00 L 456.00,189.00 L 457.00,188.00 L 459.00,188.00 L 460.00,187.00 L 463.00,187.00 L 464.00,186.00 L 466.00,186.00 L 467.00,185.00 L 469.00,185.00 L 470.00,184.00 L 471.00,184.00 L 472.00,183.00 L 473.00,183.00 L 474.00,182.00 L 475.00,182.00 L 477.00,180.00 L 478.00,180.00 L 484.00,174.00 L 484.00,173.00 L 485.00,172.00 L 485.00,171.00 L 487.00,168.00 L 487.00,166.00 L 488.00,165.00 L 488.00,163.00 L 489.00,162.00 L 489.00,158.00 L 490.00,157.00 L 490.00,149.00 L 491.00,148.00 L 491.00,122.00 L 490.00,121.00 L 490.00,113.00 L 489.00,112.00 L 489.00,109.00 L 488.00,108.00 L 488.00,106.00 L 487.00,105.00 L 487.00,103.00 L 486.00,102.00 L 486.00,101.00 L 485.00,100.00 L 485.00,99.00 L 483.00,97.00 L 483.00,96.00 L 477.00,90.00 L 476.00,90.00 L 474.00,88.00 L 473.00,88.00 L 472.00,87.00 L 471.00,87.00 L 468.00,85.00 L 466.00,85.00 L 465.00,84.00 L 462.00,84.00 L 461.00,83.00 L 458.00,83.00 L 457.00,82.00 L 451.00,82.00 L 450.00,81.00 Z M 375.00,111.00 L 377.00,109.00 L 446.00,109.00 L 447.00,110.00 L 450.00,110.00 L 451.00,111.00 L 453.00,111.00 L 459.00,117.00 L 459.00,118.00 L 461.00,121.00 L 461.00,150.00 L 460.00,151.00 L 460.00,154.00 L 459.00,155.00 L 459.00,156.00 L 455.00,160.00 L 454.00,160.00 L 453.00,161.00 L 452.00,161.00 L 449.00,163.00 L 444.00,163.00 L 443.00,164.00 L 377.00,164.00 L 375.00,162.00 Z" fill="#050B1C" fill-rule="evenodd"/>
</svg>
