<?xml version="1.0" encoding="UTF-8"?>
<svg xmlns="http://www.w3.org/2000/svg"
     width="1049"
     height="240"
     viewBox="0 0 1049 240"
     role="img"
     aria-labelledby="revikoo-title revikoo-desc">
  <title id="revikoo-title">Revikoo</title>
  <desc id="revikoo-desc">Logotipo vectorial de Revikoo trazado desde el recurso original aprobado.</desc>
  <defs>
    <linearGradient id="revikoo-violet" x1="0" y1="0" x2="0" y2="1">
      <stop offset="0%" stop-color="#8D40F3"/>
      <stop offset="25%" stop-color="#833BF1"/>
      <stop offset="50%" stop-color="#7A37F0"/>
      <stop offset="75%" stop-color="#682DEC"/>
      <stop offset="100%" stop-color="#5422E3"/>
    </linearGradient>
  </defs>
  <path d="M 20.00,20.00 L 73.00,70.00 L 164.00,70.00 L 166.00,76.00 L 96.00,157.00 L 160.00,219.00 L 231.00,219.00 L 162.00,154.00 L 230.00,76.00 L 230.00,69.00 L 180.00,20.00 Z" fill="url(#revikoo-violet)" fill-rule="evenodd"/>
  <path d="M 21.00,70.00 L 21.00,182.00 L 72.00,219.00 L 72.00,93.00 Z" fill="url(#revikoo-violet)" fill-rule="evenodd"/>
  <path d="M 660.00,107.00 L 660.00,113.00 L 659.00,114.00 L 659.00,116.00 L 660.00,117.00 L 660.00,121.00 L 659.00,122.00 L 659.00,132.00 L 660.00,133.00 L 660.00,135.00 L 659.00,136.00 L 659.00,163.00 L 660.00,164.00 L 660.00,171.00 L 659.00,172.00 L 659.00,175.00 L 660.00,176.00 L 660.00,183.00 L 659.00,184.00 L 659.00,190.00 L 660.00,191.00 L 660.00,204.00 L 682.00,204.00 L 683.00,203.00 L 683.00,108.00 L 682.00,107.00 Z M 536.00,107.00 L 536.00,110.00 L 538.00,113.00 L 538.00,115.00 L 539.00,116.00 L 539.00,117.00 L 540.00,118.00 L 540.00,119.00 L 542.00,122.00 L 542.00,124.00 L 543.00,125.00 L 543.00,126.00 L 544.00,127.00 L 544.00,128.00 L 545.00,129.00 L 545.00,130.00 L 546.00,131.00 L 546.00,132.00 L 548.00,135.00 L 548.00,137.00 L 549.00,138.00 L 549.00,139.00 L 550.00,140.00 L 550.00,141.00 L 551.00,142.00 L 551.00,143.00 L 553.00,146.00 L 553.00,148.00 L 554.00,149.00 L 554.00,150.00 L 556.00,153.00 L 556.00,155.00 L 557.00,156.00 L 557.00,157.00 L 558.00,158.00 L 558.00,159.00 L 559.00,160.00 L 559.00,161.00 L 560.00,162.00 L 560.00,163.00 L 562.00,166.00 L 562.00,168.00 L 563.00,169.00 L 563.00,170.00 L 564.00,171.00 L 564.00,172.00 L 566.00,175.00 L 566.00,177.00 L 567.00,178.00 L 567.00,179.00 L 568.00,180.00 L 568.00,181.00 L 569.00,182.00 L 569.00,183.00 L 571.00,186.00 L 571.00,188.00 L 572.00,189.00 L 572.00,190.00 L 574.00,193.00 L 574.00,195.00 L 575.00,196.00 L 575.00,197.00 L 577.00,200.00 L 577.00,202.00 L 579.00,204.00 L 604.00,204.00 L 605.00,203.00 L 605.00,202.00 L 606.00,201.00 L 606.00,200.00 L 607.00,199.00 L 607.00,198.00 L 609.00,195.00 L 609.00,193.00 L 610.00,192.00 L 610.00,191.00 L 612.00,188.00 L 612.00,186.00 L 613.00,185.00 L 613.00,184.00 L 614.00,183.00 L 614.00,182.00 L 616.00,179.00 L 616.00,177.00 L 618.00,174.00 L 618.00,172.00 L 619.00,171.00 L 619.00,170.00 L 620.00,169.00 L 620.00,168.00 L 621.00,167.00 L 621.00,166.00 L 623.00,163.00 L 623.00,161.00 L 624.00,160.00 L 624.00,159.00 L 625.00,158.00 L 625.00,157.00 L 626.00,156.00 L 626.00,155.00 L 627.00,154.00 L 627.00,153.00 L 629.00,150.00 L 629.00,148.00 L 630.00,147.00 L 630.00,146.00 L 632.00,143.00 L 632.00,141.00 L 633.00,140.00 L 633.00,139.00 L 634.00,138.00 L 634.00,137.00 L 635.00,136.00 L 635.00,135.00 L 637.00,132.00 L 637.00,130.00 L 638.00,129.00 L 638.00,128.00 L 639.00,127.00 L 639.00,126.00 L 640.00,125.00 L 640.00,124.00 L 642.00,121.00 L 642.00,119.00 L 643.00,118.00 L 643.00,117.00 L 644.00,116.00 L 644.00,115.00 L 646.00,112.00 L 646.00,110.00 L 647.00,109.00 L 647.00,107.00 L 623.00,107.00 L 622.00,108.00 L 622.00,109.00 L 621.00,110.00 L 621.00,112.00 L 620.00,113.00 L 620.00,114.00 L 618.00,117.00 L 618.00,119.00 L 616.00,122.00 L 616.00,124.00 L 615.00,125.00 L 615.00,126.00 L 614.00,127.00 L 614.00,128.00 L 612.00,131.00 L 612.00,133.00 L 611.00,134.00 L 611.00,135.00 L 609.00,138.00 L 609.00,140.00 L 607.00,143.00 L 607.00,145.00 L 606.00,146.00 L 606.00,147.00 L 604.00,150.00 L 604.00,152.00 L 602.00,155.00 L 602.00,157.00 L 600.00,160.00 L 600.00,162.00 L 599.00,163.00 L 599.00,164.00 L 597.00,167.00 L 597.00,169.00 L 595.00,172.00 L 595.00,174.00 L 594.00,175.00 L 594.00,177.00 L 592.00,180.00 L 591.00,180.00 L 589.00,177.00 L 589.00,175.00 L 587.00,172.00 L 587.00,170.00 L 585.00,167.00 L 585.00,165.00 L 583.00,162.00 L 583.00,160.00 L 582.00,159.00 L 582.00,158.00 L 580.00,155.00 L 580.00,153.00 L 578.00,150.00 L 578.00,148.00 L 576.00,145.00 L 576.00,143.00 L 575.00,142.00 L 575.00,141.00 L 573.00,138.00 L 573.00,136.00 L 572.00,135.00 L 572.00,134.00 L 570.00,131.00 L 570.00,129.00 L 569.00,128.00 L 569.00,126.00 L 568.00,125.00 L 568.00,124.00 L 567.00,123.00 L 567.00,122.00 L 565.00,119.00 L 565.00,117.00 L 563.00,114.00 L 563.00,112.00 L 562.00,111.00 L 562.00,110.00 L 561.00,109.00 L 561.00,108.00 L 560.00,107.00 Z M 934.00,115.00 L 932.00,117.00 L 932.00,118.00 L 929.00,121.00 L 929.00,122.00 L 928.00,123.00 L 928.00,125.00 L 927.00,126.00 L 927.00,128.00 L 926.00,129.00 L 926.00,132.00 L 925.00,133.00 L 925.00,139.00 L 924.00,140.00 L 924.00,173.00 L 925.00,174.00 L 925.00,180.00 L 926.00,181.00 L 926.00,183.00 L 927.00,184.00 L 927.00,186.00 L 928.00,187.00 L 928.00,188.00 L 929.00,189.00 L 929.00,190.00 L 930.00,191.00 L 930.00,192.00 L 937.00,199.00 L 938.00,199.00 L 940.00,201.00 L 942.00,201.00 L 945.00,203.00 L 948.00,203.00 L 949.00,204.00 L 955.00,204.00 L 956.00,205.00 L 994.00,205.00 L 995.00,204.00 L 1001.00,204.00 L 1002.00,203.00 L 1005.00,203.00 L 1006.00,202.00 L 1008.00,202.00 L 1009.00,201.00 L 1010.00,201.00 L 1011.00,200.00 L 1012.00,200.00 L 1013.00,199.00 L 1014.00,199.00 L 1022.00,191.00 L 1022.00,190.00 L 1023.00,189.00 L 1023.00,188.00 L 1025.00,185.00 L 1025.00,183.00 L 1026.00,182.00 L 1026.00,179.00 L 1027.00,178.00 L 1027.00,172.00 L 1028.00,171.00 L 1028.00,140.00 L 1027.00,139.00 L 1027.00,133.00 L 1026.00,132.00 L 1026.00,128.00 L 1025.00,127.00 L 1025.00,126.00 L 1024.00,125.00 L 1024.00,124.00 L 1023.00,123.00 L 1023.00,122.00 L 1022.00,121.00 L 1022.00,120.00 L 1018.00,116.00 L 1018.00,115.00 L 1017.00,115.00 L 1014.00,112.00 L 1013.00,112.00 L 1010.00,110.00 L 1008.00,110.00 L 1007.00,109.00 L 1005.00,109.00 L 1004.00,108.00 L 1001.00,108.00 L 1000.00,107.00 L 995.00,107.00 L 994.00,106.00 L 959.00,106.00 L 958.00,107.00 L 951.00,107.00 L 950.00,108.00 L 948.00,108.00 L 947.00,109.00 L 945.00,109.00 L 944.00,110.00 L 942.00,110.00 L 941.00,111.00 L 940.00,111.00 L 939.00,112.00 L 938.00,112.00 L 935.00,115.00 Z M 955.00,129.00 L 957.00,129.00 L 958.00,128.00 L 961.00,128.00 L 962.00,127.00 L 990.00,127.00 L 991.00,128.00 L 994.00,128.00 L 995.00,129.00 L 996.00,129.00 L 997.00,130.00 L 998.00,130.00 L 1002.00,134.00 L 1002.00,135.00 L 1004.00,138.00 L 1004.00,144.00 L 1005.00,145.00 L 1005.00,165.00 L 1004.00,166.00 L 1004.00,173.00 L 1003.00,174.00 L 1003.00,175.00 L 1002.00,176.00 L 1002.00,177.00 L 997.00,182.00 L 996.00,182.00 L 995.00,183.00 L 992.00,183.00 L 991.00,184.00 L 960.00,184.00 L 959.00,183.00 L 957.00,183.00 L 956.00,182.00 L 955.00,182.00 L 954.00,181.00 L 953.00,181.00 L 949.00,177.00 L 949.00,175.00 L 948.00,174.00 L 948.00,172.00 L 947.00,171.00 L 947.00,141.00 L 948.00,140.00 L 948.00,137.00 L 949.00,136.00 L 949.00,135.00 Z M 818.00,114.00 L 813.00,119.00 L 813.00,120.00 L 812.00,121.00 L 812.00,122.00 L 811.00,123.00 L 811.00,124.00 L 809.00,127.00 L 809.00,129.00 L 808.00,130.00 L 808.00,135.00 L 807.00,136.00 L 807.00,176.00 L 808.00,177.00 L 808.00,182.00 L 809.00,183.00 L 809.00,185.00 L 810.00,186.00 L 810.00,187.00 L 811.00,188.00 L 811.00,189.00 L 812.00,190.00 L 812.00,191.00 L 815.00,194.00 L 815.00,195.00 L 816.00,196.00 L 817.00,196.00 L 820.00,199.00 L 821.00,199.00 L 822.00,200.00 L 823.00,200.00 L 826.00,202.00 L 828.00,202.00 L 829.00,203.00 L 832.00,203.00 L 833.00,204.00 L 838.00,204.00 L 839.00,205.00 L 878.00,205.00 L 879.00,204.00 L 884.00,204.00 L 885.00,203.00 L 888.00,203.00 L 889.00,202.00 L 891.00,202.00 L 892.00,201.00 L 893.00,201.00 L 894.00,200.00 L 895.00,200.00 L 896.00,199.00 L 897.00,199.00 L 904.00,192.00 L 904.00,191.00 L 905.00,190.00 L 905.00,189.00 L 907.00,187.00 L 907.00,185.00 L 908.00,184.00 L 908.00,182.00 L 909.00,181.00 L 909.00,178.00 L 910.00,177.00 L 910.00,169.00 L 911.00,168.00 L 911.00,144.00 L 910.00,143.00 L 910.00,134.00 L 909.00,133.00 L 909.00,130.00 L 908.00,129.00 L 908.00,127.00 L 907.00,126.00 L 907.00,124.00 L 906.00,123.00 L 906.00,122.00 L 904.00,120.00 L 904.00,119.00 L 897.00,112.00 L 896.00,112.00 L 893.00,110.00 L 891.00,110.00 L 888.00,108.00 L 885.00,108.00 L 884.00,107.00 L 877.00,107.00 L 876.00,106.00 L 842.00,106.00 L 841.00,107.00 L 834.00,107.00 L 833.00,108.00 L 830.00,108.00 L 829.00,109.00 L 827.00,109.00 L 826.00,110.00 L 825.00,110.00 L 824.00,111.00 L 823.00,111.00 L 822.00,112.00 L 821.00,112.00 L 819.00,114.00 Z M 837.00,129.00 L 839.00,129.00 L 840.00,128.00 L 843.00,128.00 L 844.00,127.00 L 873.00,127.00 L 874.00,128.00 L 877.00,128.00 L 878.00,129.00 L 879.00,129.00 L 880.00,130.00 L 881.00,130.00 L 884.00,133.00 L 884.00,134.00 L 886.00,136.00 L 886.00,139.00 L 887.00,140.00 L 887.00,172.00 L 886.00,173.00 L 886.00,175.00 L 885.00,176.00 L 885.00,177.00 L 880.00,182.00 L 879.00,182.00 L 878.00,183.00 L 875.00,183.00 L 874.00,184.00 L 843.00,184.00 L 842.00,183.00 L 839.00,183.00 L 838.00,182.00 L 837.00,182.00 L 835.00,180.00 L 834.00,180.00 L 832.00,178.00 L 832.00,177.00 L 830.00,174.00 L 830.00,171.00 L 829.00,170.00 L 829.00,142.00 L 830.00,141.00 L 830.00,138.00 L 831.00,137.00 L 831.00,135.00 Z M 442.00,114.00 L 438.00,118.00 L 438.00,119.00 L 436.00,121.00 L 436.00,122.00 L 434.00,125.00 L 434.00,128.00 L 433.00,129.00 L 433.00,133.00 L 432.00,134.00 L 432.00,146.00 L 431.00,147.00 L 431.00,165.00 L 432.00,166.00 L 432.00,179.00 L 433.00,180.00 L 433.00,184.00 L 434.00,185.00 L 434.00,187.00 L 435.00,188.00 L 435.00,189.00 L 436.00,190.00 L 436.00,191.00 L 438.00,193.00 L 438.00,194.00 L 441.00,197.00 L 442.00,197.00 L 444.00,199.00 L 445.00,199.00 L 447.00,201.00 L 449.00,201.00 L 450.00,202.00 L 452.00,202.00 L 453.00,203.00 L 456.00,203.00 L 457.00,204.00 L 465.00,204.00 L 466.00,205.00 L 500.00,205.00 L 501.00,204.00 L 509.00,204.00 L 510.00,203.00 L 513.00,203.00 L 514.00,202.00 L 516.00,202.00 L 517.00,201.00 L 518.00,201.00 L 519.00,200.00 L 520.00,200.00 L 527.00,193.00 L 527.00,192.00 L 529.00,189.00 L 529.00,187.00 L 530.00,186.00 L 530.00,184.00 L 531.00,183.00 L 531.00,174.00 L 512.00,174.00 L 511.00,173.00 L 510.00,173.00 L 509.00,174.00 L 509.00,176.00 L 508.00,177.00 L 508.00,179.00 L 505.00,182.00 L 504.00,182.00 L 501.00,184.00 L 465.00,184.00 L 464.00,183.00 L 461.00,183.00 L 459.00,181.00 L 458.00,181.00 L 457.00,180.00 L 457.00,179.00 L 455.00,176.00 L 455.00,173.00 L 454.00,172.00 L 454.00,164.00 L 455.00,163.00 L 531.00,163.00 L 532.00,162.00 L 532.00,159.00 L 533.00,158.00 L 533.00,155.00 L 532.00,154.00 L 532.00,132.00 L 531.00,131.00 L 531.00,128.00 L 530.00,127.00 L 530.00,125.00 L 529.00,124.00 L 529.00,123.00 L 528.00,122.00 L 528.00,121.00 L 527.00,120.00 L 527.00,119.00 L 520.00,112.00 L 519.00,112.00 L 518.00,111.00 L 517.00,111.00 L 514.00,109.00 L 512.00,109.00 L 511.00,108.00 L 509.00,108.00 L 508.00,107.00 L 501.00,107.00 L 500.00,106.00 L 467.00,106.00 L 466.00,107.00 L 458.00,107.00 L 457.00,108.00 L 454.00,108.00 L 453.00,109.00 L 451.00,109.00 L 450.00,110.00 L 449.00,110.00 L 448.00,111.00 L 447.00,111.00 L 446.00,112.00 L 445.00,112.00 L 443.00,114.00 Z M 454.00,140.00 L 455.00,139.00 L 455.00,135.00 L 456.00,134.00 L 456.00,133.00 L 460.00,129.00 L 461.00,129.00 L 462.00,128.00 L 465.00,128.00 L 466.00,127.00 L 499.00,127.00 L 500.00,128.00 L 502.00,128.00 L 503.00,129.00 L 504.00,129.00 L 508.00,133.00 L 508.00,134.00 L 509.00,135.00 L 509.00,139.00 L 510.00,140.00 L 510.00,143.00 L 508.00,146.00 L 456.00,146.00 L 454.00,144.00 Z M 705.00,71.00 L 704.00,72.00 L 704.00,203.00 L 705.00,204.00 L 727.00,204.00 L 727.00,201.00 L 728.00,200.00 L 728.00,163.00 L 729.00,162.00 L 743.00,162.00 L 746.00,165.00 L 746.00,166.00 L 749.00,169.00 L 749.00,170.00 L 753.00,174.00 L 753.00,175.00 L 756.00,178.00 L 756.00,179.00 L 760.00,183.00 L 760.00,184.00 L 764.00,188.00 L 764.00,189.00 L 767.00,192.00 L 767.00,193.00 L 771.00,197.00 L 771.00,198.00 L 775.00,202.00 L 775.00,203.00 L 776.00,203.00 L 777.00,204.00 L 803.00,204.00 L 803.00,201.00 L 800.00,198.00 L 800.00,197.00 L 796.00,193.00 L 796.00,192.00 L 792.00,188.00 L 792.00,187.00 L 787.00,182.00 L 787.00,181.00 L 782.00,176.00 L 782.00,175.00 L 778.00,171.00 L 778.00,170.00 L 773.00,165.00 L 773.00,164.00 L 768.00,159.00 L 768.00,158.00 L 764.00,154.00 L 764.00,151.00 L 771.00,144.00 L 771.00,143.00 L 777.00,137.00 L 777.00,136.00 L 784.00,129.00 L 784.00,128.00 L 791.00,121.00 L 791.00,120.00 L 797.00,114.00 L 797.00,113.00 L 801.00,109.00 L 801.00,107.00 L 774.00,107.00 L 770.00,111.00 L 770.00,112.00 L 765.00,117.00 L 765.00,118.00 L 760.00,123.00 L 760.00,124.00 L 755.00,129.00 L 755.00,130.00 L 750.00,135.00 L 750.00,136.00 L 743.00,143.00 L 729.00,143.00 L 727.00,141.00 L 728.00,140.00 L 728.00,76.00 L 727.00,75.00 L 727.00,71.00 Z M 660.00,71.00 L 660.00,72.00 L 659.00,73.00 L 659.00,90.00 L 660.00,91.00 L 660.00,94.00 L 661.00,95.00 L 681.00,95.00 L 683.00,93.00 L 683.00,72.00 L 682.00,71.00 Z M 300.00,71.00 L 299.00,72.00 L 299.00,204.00 L 322.00,204.00 L 322.00,164.00 L 324.00,161.00 L 358.00,161.00 L 361.00,164.00 L 361.00,165.00 L 365.00,169.00 L 365.00,170.00 L 368.00,173.00 L 368.00,174.00 L 371.00,177.00 L 371.00,178.00 L 374.00,181.00 L 374.00,182.00 L 377.00,185.00 L 377.00,186.00 L 380.00,189.00 L 380.00,190.00 L 384.00,194.00 L 384.00,195.00 L 388.00,199.00 L 388.00,200.00 L 392.00,204.00 L 420.00,204.00 L 421.00,203.00 L 421.00,202.00 L 418.00,199.00 L 418.00,198.00 L 413.00,193.00 L 413.00,192.00 L 409.00,188.00 L 409.00,187.00 L 404.00,182.00 L 404.00,181.00 L 399.00,176.00 L 399.00,175.00 L 395.00,171.00 L 395.00,170.00 L 390.00,165.00 L 390.00,164.00 L 388.00,162.00 L 388.00,161.00 L 391.00,159.00 L 394.00,159.00 L 395.00,158.00 L 397.00,158.00 L 398.00,157.00 L 400.00,157.00 L 401.00,156.00 L 402.00,156.00 L 403.00,155.00 L 404.00,155.00 L 406.00,153.00 L 407.00,153.00 L 414.00,146.00 L 414.00,145.00 L 416.00,142.00 L 416.00,140.00 L 417.00,139.00 L 417.00,137.00 L 418.00,136.00 L 418.00,131.00 L 419.00,130.00 L 419.00,100.00 L 418.00,99.00 L 418.00,95.00 L 417.00,94.00 L 417.00,91.00 L 416.00,90.00 L 416.00,89.00 L 415.00,88.00 L 415.00,87.00 L 413.00,85.00 L 413.00,84.00 L 411.00,82.00 L 411.00,81.00 L 410.00,81.00 L 407.00,78.00 L 406.00,78.00 L 404.00,76.00 L 403.00,76.00 L 400.00,74.00 L 398.00,74.00 L 397.00,73.00 L 393.00,73.00 L 392.00,72.00 L 386.00,72.00 L 385.00,71.00 Z M 322.00,97.00 L 324.00,95.00 L 384.00,95.00 L 385.00,96.00 L 387.00,96.00 L 388.00,97.00 L 389.00,97.00 L 392.00,100.00 L 392.00,101.00 L 394.00,104.00 L 394.00,129.00 L 393.00,130.00 L 393.00,131.00 L 392.00,132.00 L 392.00,133.00 L 388.00,137.00 L 387.00,137.00 L 386.00,138.00 L 384.00,138.00 L 383.00,139.00 L 324.00,139.00 L 322.00,137.00 Z" fill="#FFFFFF" fill-rule="evenodd"/>
</svg>
